<?xml version="1.0" encoding="UTF-8" standalone="no"?>
<!-- Created with Inkscape (http://www.inkscape.org/) -->

<svg
   xmlns:dc="http://purl.org/dc/elements/1.1/"
   xmlns:cc="http://creativecommons.org/ns#"
   xmlns:rdf="http://www.w3.org/1999/02/22-rdf-syntax-ns#"
   xmlns:svg="http://www.w3.org/2000/svg"
   xmlns="http://www.w3.org/2000/svg"
   xmlns:xlink="http://www.w3.org/1999/xlink"
   xmlns:sodipodi="http://sodipodi.sourceforge.net/DTD/sodipodi-0.dtd"
   xmlns:inkscape="http://www.inkscape.org/namespaces/inkscape"
   width="8.6666536in"
   height="8.67414in"
   viewBox="0 0 779.99884 780.67262"
   id="svg2"
   version="1.1"
   inkscape:version="0.91 r13725"
   sodipodi:docname="donut copy.svg">
  <defs
     id="defs4">
    <inkscape:path-effect
       effect="spiro"
       id="path-effect5880"
       is_visible="true" />
    <inkscape:path-effect
       effect="spiro"
       id="path-effect5876"
       is_visible="true" />
    <inkscape:path-effect
       effect="spiro"
       id="path-effect5872"
       is_visible="true" />
    <linearGradient
       inkscape:collect="always"
       id="linearGradient5815">
      <stop
         style="stop-color:#b66c2f;stop-opacity:1"
         offset="0"
         id="stop5817" />
      <stop
         style="stop-color:#ecc084;stop-opacity:1"
         offset="1"
         id="stop5819" />
    </linearGradient>
    <radialGradient
       inkscape:collect="always"
       xlink:href="#linearGradient5815"
       id="radialGradient5821"
       cx="-385.20883"
       cy="1103.6464"
       fx="-385.20883"
       fy="1103.6464"
       r="299.99942"
       gradientTransform="matrix(1,0,0,1.0000033,1810.7054,4.0929876)"
       gradientUnits="userSpaceOnUse" />
    <filter
       inkscape:collect="always"
       style="color-interpolation-filters:sRGB"
       id="filter6410"
       x="-0.044604536"
       width="1.0892091"
       y="-0.051955007"
       height="1.10391">
      <feGaussianBlur
         inkscape:collect="always"
         stdDeviation="9.5397777"
         id="feGaussianBlur6412" />
    </filter>
  </defs>
  <sodipodi:namedview
     id="base"
     pagecolor="#ffffff"
     bordercolor="#666666"
     borderopacity="1.0"
     inkscape:pageopacity="0.0"
     inkscape:pageshadow="2"
     inkscape:zoom="0.34049511"
     inkscape:cx="1189.9175"
     inkscape:cy="678.73308"
     inkscape:document-units="px"
     inkscape:current-layer="layer4"
     showgrid="false"
     inkscape:window-width="1280"
     inkscape:window-height="687"
     inkscape:window-x="0"
     inkscape:window-y="1"
     inkscape:window-maximized="1"
     units="in"
     fit-margin-top="1"
     fit-margin-left="1"
     fit-margin-right="1"
     fit-margin-bottom="1" />
  <metadata
     id="metadata7">
    <rdf:RDF>
      <cc:Work
         rdf:about="">
        <dc:format>image/svg+xml</dc:format>
        <dc:type
           rdf:resource="http://purl.org/dc/dcmitype/StillImage" />
        <dc:title></dc:title>
      </cc:Work>
    </rdf:RDF>
  </metadata>
  <g
     inkscape:groupmode="layer"
     id="layer4"
     inkscape:label="Pink Donut"
     style="display:inline"
     transform="translate(-1035.4972,-717.28199)">
    <g
       id="g7137">
      <g
         id="g6565"
         style="display:inline">
        <path
           id="path5813"
           d="M 1425.4966,808.68536 A 299.05725,299.05722 0 0 0 1126.44,1107.742 299.05725,299.05722 0 0 0 1425.4966,1406.8006 299.05725,299.05722 0 0 0 1724.5533,1107.742 299.05725,299.05722 0 0 0 1425.4966,808.68536 Z m 0,209.90624 a 89.150987,89.150987 0 0 1 89.1524,89.1523 89.150987,89.150987 0 0 1 -89.1524,89.1504 89.150987,89.150987 0 0 1 -89.1523,-89.1504 89.150987,89.150987 0 0 1 89.1523,-89.1523 z"
           style="display:inline;opacity:1;fill:url(#radialGradient5821);fill-opacity:1;fill-rule:evenodd;stroke:#000000;stroke-width:1.88553023;stroke-linecap:round;stroke-linejoin:round;stroke-miterlimit:4;stroke-dasharray:none;stroke-dashoffset:0;stroke-opacity:1"
           inkscape:connector-curvature="0" />
        <path
           inkscape:connector-curvature="0"
           id="path6226"
           d="m 1407.6226,808.20125 c -19.9612,2.71327 -39.6777,8.35689 -56.9161,18.77074 -11.4041,9.77411 -22.6637,19.81153 -37.9526,22.50872 -9.866,3.60721 -19.7355,7.19326 -30.4141,5.79298 -18.3752,11.5208 -27.2273,32.45883 -44.9004,44.90039 -8.2743,5.59686 -12.813,13.73585 -15.9316,23.17383 -4.3311,12.58209 -21.3499,11.59061 -26.3126,23.97811 -11.7011,13.28229 -23.5378,27.57837 -25.5498,45.8751 -7.2432,22.86188 -14.9892,46.00708 -27.8497,66.39568 -2.0219,10.4447 -16.0483,14.1244 -13.255,25.6568 -1.3038,24.3344 1.0317,48.6766 4.6154,72.731 12.3969,5.3831 21.0876,16.85 21.229,30.5756 5.2472,12.2365 13.8486,23.4109 18.9675,35.8729 12.9744,16.3472 27.7441,31.4261 46.7059,40.7312 15.9289,16.4474 24.4199,37.8891 34.7617,57.9336 20.3997,16.2764 51.4167,18.0407 64.6628,42.9261 5.8247,6.844 13.3738,16.5265 22.9229,16.4587 12.8062,0.4335 26.5278,-2.6996 37.0048,6.5818 9.0082,5.6179 20.4724,8.2782 26.0392,18.0401 12.7951,-0.7326 25.5896,-0.7878 38.3835,0 11.7705,-18.3524 33.5755,-24.9761 51.569,-35.5624 15.0895,-8.8683 33.8352,-9.2568 47.1081,-21.5326 11.3953,-7.6843 23.1777,-14.9344 37.3493,-15.1837 25.2698,-4.2299 52.1667,-11.7791 69.2814,-31.9271 8.0392,-10.5877 13.8744,-22.0845 15.0865,-35.4883 9.3062,-16.729 20.0483,-33.1794 28.2119,-50.782 7.4635,-14.1549 10.3227,-30.5083 14.2133,-45.8368 -0.8454,-20.4324 0.2156,-41.1494 -7.1823,-60.6039 -0.475,-20.2292 11.5304,-38.4073 8.6894,-58.7658 -0.8904,-14.5026 5.9706,-28.808 -0.7627,-42.7735 -3.1944,-16.56948 -8.3487,-32.36509 -17.8769,-46.43382 -11.8876,-25.73172 -34.7313,-43.62077 -52.4679,-65.16562 -12.1378,-16.37285 -30.6399,-25.81633 -47.8838,-35.75491 -15.3562,-5.50213 -30.0335,-14.60272 -46.9541,-11.81344 -12.0452,-1.1928 -25.6509,2.48397 -36.6578,-1.9488 -18.023,-10.75605 -27.3319,-35.60312 -50.4744,-36.8626 -15.7008,-3.18602 -31.5376,-2.46455 -47.4598,-2.46806 z m 38.3818,186.11742 c 11.0598,-4.44537 16.3173,6.26103 24.9892,10.70243 18.979,-1.8344 5.4789,23.4563 19.3645,26.2064 8.1467,8.8423 21.9906,-2.2654 27.1915,8.3504 2.9371,10.582 18.7779,8.5089 16.7203,20.7532 0.5049,10.7633 15.4992,14.1614 10.5968,26.7711 -9.0763,4.9602 -28.106,23.309 -11.2607,30.5076 8.6929,6.4052 9.1146,18.723 1.51,26.3517 -18.6343,0.7944 -18.7806,12.9368 -23.2696,26.8101 -4.9146,10.7648 0.2299,24.9686 -8.7228,33.4949 -14.6319,6.1465 -30.8966,-5.1708 -38.6231,13.6092 -11.7073,0.8588 -18.8519,-5.6349 -23.8286,-15.6219 -9.2049,5.9435 -19.0611,9.7531 -30.1515,9.5179 -6.5452,-7.0802 -15.1659,-15.9963 -24.6161,-16.3294 -11.6456,6.2726 -27.946,19.3982 -33.0522,-0.071 -9.5659,-6.5544 -21.4224,-17.0721 -15.9143,-29.915 2.5884,-10.368 2.4814,-19.8914 -7.6868,-25.8019 -8.9405,-4.19 -21.5776,-9.167 -17.9589,-21.4198 4.5044,-9.9578 10.5458,-21.1329 4.1125,-31.8701 4.1509,-12.3802 0.7374,-36.7934 19.745,-36.6187 11.6411,3.2687 20.1269,0.3877 23.9138,-11.6512 5.0968,-8.1025 -7.4427,-22.8119 6.612,-25.4512 7.5759,-7.7713 19.7017,-2.8807 26.235,-11.7219 11.4428,-15.16262 25.0678,1.6958 37.5532,3.6826 10.2953,1.7122 13.1443,-0.5398 16.5408,-10.28512 z"
           style="fill:#fc75ba;fill-opacity:1;fill-rule:evenodd;stroke:#000000;stroke-width:1.70000005;stroke-linecap:round;stroke-linejoin:round;stroke-miterlimit:4;stroke-dasharray:none;stroke-opacity:1" />
        <g
           id="g6228"
           style="fill:#d1438b;fill-opacity:1;stroke:none;filter:url(#filter6410)"
           transform="translate(1418.3741,1548.4318)">
          <path
             inkscape:connector-curvature="0"
             inkscape:original-d="m -147.47827,-530.9809 c 1.29546,1.83809 -0.64773,4.20173 0,6.14493 0.15267,0.45802 0.87148,0.56614 1.02415,1.02415 0.21591,0.64774 0,1.36554 0,2.04831 0,0.68277 0,1.36554 0,2.04831 0,3.07247 0,6.14493 0,9.21739 0,0.86915 0.1882,5.58034 0,6.14493 -0.15267,0.45802 -0.75635,0.62245 -1.02415,1.02416 -0.42344,0.63515 -0.78276,1.32412 -1.02416,2.04831 -0.10795,0.32386 0.18937,0.7401 0,1.02415 -0.5356,0.80341 -1.46896,1.27584 -2.0483,2.04831 -4.71532,6.28708 2.0042,-1.96011 -1.02416,4.09662 -0.43182,0.86364 -1.46896,1.27584 -2.04831,2.04831 -0.45801,0.61069 -0.68277,1.36554 -1.02415,2.04831 -0.34139,0.68277 -0.78276,1.32412 -1.02416,2.04831 -0.10795,0.32386 0.0828,0.69296 0,1.02415 -0.63277,2.5311 -0.9888,3.00176 -2.04831,5.12078 -0.34138,0.68276 -0.60072,1.41315 -1.02415,2.0483 -0.80342,1.20512 -2.20344,1.91377 -3.07247,3.07247 -0.45801,0.61069 -0.68277,1.36554 -1.02415,2.04831 -0.34139,0.68277 -0.87445,1.29977 -1.02416,2.04831 -0.20085,1.00426 0.16837,2.06224 0,3.07246 -0.35495,2.12973 -1.74296,4.00752 -2.0483,6.14493 -0.33456,2.3419 0.33455,4.82718 0,7.16908 -1.27255,8.90784 -1.02416,-0.0887 -1.02416,7.16908 0,2.3897 0,4.77939 0,7.16909 0,1.02415 -0.16837,2.06224 0,3.07246 0.55939,3.35635 2.78489,6.15668 4.09662,9.21739 0.72419,1.68977 1.22614,3.47645 2.04831,5.12078 0.55047,1.10093 1.27938,2.1113 2.04831,3.07246 0.60319,0.75399 1.61649,1.18467 2.04831,2.04831 0.62948,1.25896 0.24337,2.92545 1.02415,4.09662 0.68277,1.02415 2.11131,1.27938 3.07247,2.04831 0.75399,0.60319 1.29431,1.44511 2.04831,2.04831 0.96115,0.76892 2.1113,1.27938 3.07246,2.04831 0.75399,0.60319 1.29432,1.44511 2.04831,2.04831 1.92231,1.53785 4.25375,2.52063 6.14493,4.09661 1.11267,0.92723 1.95979,2.14524 3.07246,3.07247 0.94559,0.78799 2.13791,1.24726 3.07246,2.04831 1.46625,1.25678 2.63037,2.83983 4.09662,4.09662 2.13049,1.82613 3.5713,1.7724 5.12078,4.09661 4.20529,6.30795 -0.0938,1.93109 4.09661,7.16909 1.20639,1.50798 3.02541,2.48979 4.09662,4.09662 2.33113,3.49668 1.70693,3.75523 3.07247,7.16908 1.53291,3.83228 0.66797,0.31179 3.07246,5.12077 1.89534,3.79067 0.46841,2.72309 1.02416,7.16908 0.34917,2.7934 1.73743,5.39533 2.04831,8.19324 0.18849,1.69649 0,3.41385 0,5.12077 0,1.36554 0,2.73108 0,4.09662 0,2.04831 0,4.09662 0,6.14493 0,1.36554 0.22449,2.74966 0,4.09662 -0.41254,2.47524 -1.00776,1.51163 -2.04831,3.07246 -3.44922,5.17383 -0.008,0.0237 -1.02416,3.07247 -0.95995,2.87985 -1.38012,2.05925 -4.09662,4.09662 -0.58134,0.43601 -2.61111,2.91868 -3.07246,3.07246 -0.64773,0.21591 -1.40058,-0.21591 -2.04831,0 -0.45802,0.15267 -0.56614,0.87148 -1.02416,1.02416 -0.64773,0.21591 -1.43762,-0.30535 -2.0483,0 -0.86365,0.43182 -1.15179,1.6897 -2.04831,2.0483 -0.95091,0.38037 -2.05861,-0.14483 -3.07247,0 -1.39342,0.19906 -2.74321,0.63747 -4.09662,1.02416 -1.03801,0.29658 -2.00124,0.89025 -3.07246,1.02415 -1.69374,0.21172 -3.41385,0 -5.12077,0 -1.70693,0 -3.41385,0 -5.12078,0 -3.75523,0 -7.52344,0.31186 -11.2657,0 -1.73471,-0.14456 -3.40812,-0.71276 -5.12077,-1.02415 -2.04307,-0.37147 -4.14154,-0.47778 -6.14493,-1.02416 -4.11202,-1.12145 -11.31068,-5.16575 -14.33816,-8.19323 -1.20698,-1.20698 -1.94845,-2.81203 -3.07247,-4.09662 -1.27168,-1.45335 -2.82494,-2.64327 -4.09662,-4.09662 -1.12401,-1.28459 -2.04831,-2.73108 -3.07246,-4.09662 -1.02416,-1.36554 -2.1678,-2.64915 -3.07247,-4.09662 -0.80916,-1.29465 -1.36553,-2.73108 -2.0483,-4.09662 -1.02416,-2.04831 -2.12483,-4.06011 -3.07247,-6.14492 -0.76074,-1.67363 -1.10245,-3.54435 -2.04831,-5.12078 -1.12465,-1.87442 -2.88408,-3.30197 -4.09662,-5.12077 -2.94016,-4.41025 -2.30046,-7.05214 -5.12077,-12.28986 -1.03635,-1.92464 -2.92305,-3.27658 -4.09662,-5.12077 -3.88422,-6.10377 -2.89587,-7.37589 -6.14493,-14.33816 -2.32784,-4.98824 -5.73147,-9.41465 -8.19323,-14.33817 -1.16272,-2.32543 -1.99662,-4.80221 -3.07247,-7.16908 -0.63176,-1.38988 -1.23915,-2.80197 -2.04831,-4.09662 -1.79277,-2.86843 -6.4776,-8.03573 -8.19323,-10.24155 -0.75569,-0.9716 -1.33288,-2.07085 -2.04831,-3.07246 -4.43167,-6.20433 -1.91273,-1.77714 -5.12078,-8.19324 -0.68277,-1.36554 -1.67802,-2.61548 -2.04831,-4.09662 -0.33119,-1.32477 0,-2.73108 0,-4.09662 0,-1.70692 0,-3.41385 0,-5.12077 0,-2.38969 -0.57958,-4.85074 0,-7.16908 0.81547,-3.26187 2.79188,-6.11862 4.09662,-9.21739 11.45014,-27.19407 -3.24551,5.10625 9.21739,-18.43479 1.57316,-2.97152 2.31463,-6.36621 4.09662,-9.21739 1.66813,-2.669 4.22592,-4.67437 6.14493,-7.16908 3.00193,-3.90251 5.29736,-8.30803 8.19324,-12.28986 1.2857,-1.76784 2.75459,-3.3953 4.09662,-5.12077 2.25186,-2.89526 4.73665,-6.54172 7.16908,-9.21739 1.94856,-2.14342 4.19636,-4.00151 6.14493,-6.14493 3.47752,-3.82527 6.12244,-8.16325 9.21739,-12.28986 1.31156,-1.74874 2.92305,-3.27659 4.09662,-5.12077 1.22949,-1.93205 1.97585,-4.13448 3.07246,-6.14493 1.90641,-3.49507 4.09662,-6.8277 6.14493,-10.24155 2.04831,-3.41384 4.00752,-6.88276 6.14493,-10.24154 1.32166,-2.0769 2.73108,-4.09662 4.09662,-6.14493 1.54403,-2.31605 5.04597,-7.81514 7.16908,-10.24155 3.71617,-4.24705 8.1001,-8.00701 13.31401,-10.24154 1.98453,-0.85052 4.09662,-1.36554 6.14493,-2.04831 1.02415,-0.34139 2.0076,-0.84668 3.07246,-1.02416 1.01022,-0.16837 2.0586,0.14484 3.07247,0 1.39341,-0.19906 2.7082,-0.79275 4.09661,-1.02415 1.34696,-0.2245 2.73108,0 4.09662,0 0.61723,0 3.95303,-0.10769 4.09662,0 0.27713,0.20785 5.57029,5.28296 6.14493,6.14493 0.42344,0.63515 0.68277,1.36554 1.02415,2.04831 0.34139,0.68277 0.78276,1.32412 1.02416,2.0483 0.21591,0.64774 -0.1656,1.38593 0,2.04831 0.26183,1.04732 0.81244,2.01388 1.02415,3.07247 0.26781,1.33902 -0.33119,2.77185 0,4.09662 0.18515,0.74056 0.83902,1.30774 1.02416,2.04831 0.19471,0.77883 0,4.26315 0,5.12077 0,0.34138 -0.0828,0.69296 0,1.02415 0.26183,1.04732 0.76232,2.02515 1.02415,3.07247 0.21905,0.8762 0,4.09712 0,5.12077 0,0.68277 0,1.36554 0,2.04831 0,0.68277 0.25358,1.41437 0,2.04831 -1.43215,3.58039 -2.08146,2.4339 -4.09662,5.12077 -0.91603,1.22138 -1.20143,2.82631 -2.04831,4.09662 -0.2678,0.40171 -0.80824,0.59233 -1.02415,1.02416 -0.15267,0.30534 0.2414,0.78276 0,1.02415 -0.2414,0.2414 -0.78276,-0.24139 -1.02415,0 -2.11902,2.11901 3.23813,-0.0828 -1.02416,2.04831 -1.41267,0.70634 -0.91608,-1.24031 -2.04831,1.02415 -0.70634,1.41268 1.24031,0.91608 -1.02415,2.04831 -0.30535,0.15268 -0.78276,-0.24139 -1.02416,0 -0.24139,0.2414 0.15267,0.71882 0,1.02416 -0.21591,0.43182 -0.68277,0.68277 -1.02415,1.02415 -0.34139,0.34139 -0.62245,0.75635 -1.02416,1.02416 -0.63515,0.42343 -1.50853,0.48438 -2.04831,1.02415 -0.24139,0.2414 0.15268,0.71881 0,1.02416 -0.13596,0.27192 -2.80054,2.9365 -3.07246,3.07246 -0.30534,0.15267 -0.71881,-0.15267 -1.02416,0 -0.43182,0.21591 -0.68276,0.68277 -1.02415,1.02416 -0.68277,0.68277 -1.46896,1.27584 -2.04831,2.04831 -0.45801,0.61068 -0.48438,1.50853 -1.02415,2.0483 -5.01833,2.50917 -0.85664,-0.33504 -2.04831,2.04831 -0.21591,0.43183 -0.68277,0.68277 -1.02416,1.02416 -0.34138,0.34138 -0.59233,0.80824 -1.02415,1.02415 -0.30535,0.15268 -0.71881,-0.15267 -1.02416,0 -0.43182,0.21591 -0.68277,0.68277 -1.02415,1.02416 -0.34139,0.34138 -0.80825,0.59233 -1.02416,1.02415 -0.15267,0.30535 0.2414,0.78276 0,1.02416 -2.04831,2.04831 -1.02415,-6.48632 -1.02415,3.07246 z"
             inkscape:path-effect="#path-effect5872"
             id="path6230"
             d="m -147.47827,-530.9809 c -0.91825,0.73379 -1.47773,1.89704 -1.47773,3.07247 0,1.17542 0.55948,2.33867 1.47773,3.07246 0.19116,0.15276 0.3965,0.28762 0.58184,0.4474 0.18534,0.15978 0.35286,0.34898 0.44231,0.57675 0.0628,0.15995 0.0851,0.33338 0.0874,0.5052 0.002,0.17183 -0.0142,0.3433 -0.0315,0.51427 -0.0345,0.34193 -0.0559,0.68516 -0.0559,1.02884 l 0,2.04831 0,9.21739 c 0,1.04136 0.10181,2.07932 0.26541,3.10775 0.0818,0.51421 0.16037,1.03224 0.14822,1.55277 -0.0122,0.52054 -0.1232,1.05226 -0.41363,1.48441 -0.27002,0.40178 -0.67433,0.68955 -1.02415,1.02416 -0.28324,0.27093 -0.53488,0.57809 -0.71896,0.92412 -0.18408,0.34604 -0.29917,0.73229 -0.3052,1.12419 -0.005,0.34232 0.0714,0.68932 0,1.02415 -0.0514,0.24101 -0.178,0.46159 -0.3385,0.64858 -0.1605,0.18699 -0.35437,0.34255 -0.55535,0.48515 -0.40194,0.28521 -0.84538,0.53068 -1.15445,0.91458 -0.22367,0.27783 -0.36449,0.61517 -0.44978,0.9615 -0.0853,0.34632 -0.11739,0.70334 -0.14211,1.05915 -0.0495,0.71163 -0.0791,1.45621 -0.43227,2.07597 -0.24019,0.42144 -0.612,0.75017 -0.98728,1.05753 -0.37528,0.30736 -0.76543,0.60617 -1.06103,0.99078 -0.46625,0.60665 -0.65979,1.37551 -1.02415,2.04831 -0.18312,0.33813 -0.40901,0.6511 -0.60543,0.98168 -0.19642,0.33058 -0.36543,0.68581 -0.41873,1.06663 -0.0474,0.33853 -0.002,0.68232 0,1.02415 0.004,0.92928 -0.31967,1.83096 -0.73265,2.66344 -0.41298,0.83249 -0.91812,1.61738 -1.31566,2.45734 -0.3271,0.69112 -0.58363,1.42334 -1.02415,2.0483 -0.41858,0.59383 -0.98503,1.06465 -1.5427,1.53032 -0.55767,0.46568 -1.12082,0.94164 -1.52977,1.54215 -0.43017,0.63167 -0.66948,1.37136 -1.02415,2.04831 -0.35537,0.67829 -0.83244,1.30696 -1.02416,2.04831 -0.12873,0.49778 -0.12091,1.02036 -0.0842,1.5332 0.0368,0.51284 0.10166,1.0254 0.0842,1.53926 -0.037,1.08458 -0.43793,2.12162 -0.8794,3.11298 -0.44146,0.99136 -0.93256,1.97279 -1.1689,3.03195 -0.26104,1.16987 -0.20016,2.38562 -0.10343,3.58035 0.0967,1.19473 0.22796,2.39657 0.10343,3.58873 -0.12577,1.20408 -0.49327,2.36843 -0.72602,3.55647 -0.23276,1.18804 -0.29814,2.40198 -0.29814,3.61261 l 0,7.16909 c 0,1.02443 -0.0769,2.05092 0,3.07246 0.12729,1.69003 0.81011,3.28987 1.61963,4.77885 0.80953,1.48899 1.75525,2.90508 2.47699,4.43854 0.7831,1.66384 1.29232,3.44444 2.04831,5.12078 0.50938,1.12951 1.14343,2.22602 2.04831,3.07246 0.35485,0.33193 0.74703,0.62136 1.11264,0.94141 0.36561,0.32004 0.70914,0.67704 0.93567,1.1069 0.33113,0.62835 0.38775,1.35953 0.45734,2.06638 0.0696,0.70684 0.16923,1.44168 0.56681,2.03024 0.34783,0.5149 0.88973,0.86455 1.44073,1.15179 0.551,0.28725 1.13048,0.5293 1.63174,0.89652 0.7801,0.5715 1.3222,1.40961 2.04831,2.04831 0.92545,0.81404 2.11352,1.274 3.07246,2.04831 0.75178,0.60704 1.34126,1.38971 2.04831,2.04831 1.80522,1.68154 4.28397,2.47698 6.14493,4.09661 1.09346,0.95166 1.94358,2.16311 3.07246,3.07247 0.95914,0.77263 2.09117,1.30402 3.07246,2.04831 1.54051,1.16844 2.65027,2.81346 4.09662,4.09662 1.6388,1.4539 3.69632,2.43216 5.12078,4.09661 0.89756,1.04879 1.49475,2.31558 2.07244,3.56931 0.57769,1.25374 1.15594,2.52658 2.02417,3.59978 1.21665,1.50387 2.94469,2.54261 4.09662,4.09662 0.77676,1.04789 1.25581,2.28326 1.67639,3.51799 0.42059,1.23472 0.79507,2.49341 1.39608,3.65109 0.91883,1.76986 2.34668,3.26338 3.07246,5.12077 0.88157,2.25607 0.62975,4.77921 1.02416,7.16908 0.45915,2.78211 1.79706,5.38471 2.04831,8.19324 0.15215,1.70078 0,3.41319 0,5.12077 l 0,4.09662 0,6.14493 c 0,0.68556 0.0333,1.37058 0.0872,2.05401 0.0539,0.68344 0.11008,1.38606 -0.0872,2.04261 -0.17813,0.59268 -0.55686,1.10254 -0.95048,1.5801 -0.39361,0.47757 -0.81339,0.94273 -1.09783,1.49236 -0.49726,0.96089 -0.54229,2.10377 -1.02416,3.07247 -0.43296,0.87037 -1.18503,1.53471 -1.94643,2.13909 -0.7614,0.60438 -1.56201,1.18354 -2.15019,1.95753 -0.45669,0.60096 -0.7698,1.30028 -1.22016,1.906 -0.22518,0.30286 -0.48633,0.58297 -0.79812,0.79561 -0.31179,0.21265 -0.67709,0.35568 -1.05418,0.37085 -0.34762,0.014 -0.68934,-0.0793 -1.03366,-0.12902 -0.17216,-0.0249 -0.34689,-0.0389 -0.52013,-0.0231 -0.17323,0.0158 -0.34555,0.0623 -0.49452,0.15217 -0.20827,0.12558 -0.35819,0.32613 -0.50544,0.51969 -0.14725,0.19356 -0.30377,0.3907 -0.51872,0.50447 -0.15321,0.0811 -0.32824,0.11472 -0.50155,0.11849 -0.17332,0.004 -0.34595,-0.0212 -0.5166,-0.0517 -0.3413,-0.061 -0.69222,-0.14431 -1.03015,-0.0668 -0.24,0.055 -0.45662,0.18928 -0.63756,0.35628 -0.18095,0.16701 -0.32886,0.36638 -0.46673,0.5704 -0.27572,0.40804 -0.53016,0.85472 -0.94402,1.12162 -0.22044,0.14216 -0.47601,0.22479 -0.73579,0.26116 -0.25977,0.0364 -0.52423,0.0277 -0.78476,-0.003 -0.52105,-0.0611 -1.02965,-0.20876 -1.55192,-0.25832 -0.70866,-0.0672 -1.42504,0.0486 -2.10758,0.25076 -0.68253,0.20218 -1.33628,0.48944 -1.98904,0.7734 -0.9929,0.43192 -2.0019,0.86193 -3.07246,1.02415 -0.84474,0.128 -1.70481,0.0909 -2.5585,0.0562 -0.85368,-0.0348 -1.70788,-0.0562 -2.56227,-0.0562 l -5.12078,0 c -3.75794,0 -7.53598,0.45974 -11.2657,0 -1.72829,-0.21304 -3.41253,-0.68611 -5.12077,-1.02415 -2.03727,-0.40315 -4.10902,-0.61422 -6.14493,-1.02416 -5.50817,-1.10911 -10.83436,-3.8008 -14.33816,-8.19323 -1.06479,-1.33484 -1.95146,-2.80863 -3.07247,-4.09662 -1.26837,-1.45731 -2.81463,-2.65127 -4.09662,-4.09662 -1.13315,-1.27755 -2.04403,-2.73335 -3.07246,-4.09662 -1.02858,-1.36347 -2.17946,-2.64074 -3.07247,-4.09662 -0.79868,-1.30209 -1.37712,-2.72445 -2.0483,-4.09662 -1.00672,-2.05814 -2.22804,-4.01504 -3.07247,-6.14492 -0.67861,-1.71165 -1.11393,-3.53421 -2.04831,-5.12078 -1.11079,-1.88612 -2.85585,-3.3175 -4.09662,-5.12077 -1.26236,-1.83464 -1.96074,-3.9894 -2.62105,-6.11624 -0.66031,-2.12684 -1.31233,-4.28959 -2.49972,-6.17362 -1.16644,-1.85078 -2.80272,-3.35674 -4.09662,-5.12077 -3.08582,-4.20703 -4.03154,-9.56794 -6.14493,-14.33816 -2.23139,-5.03657 -5.76096,-9.39547 -8.19323,-14.33817 -1.14814,-2.33318 -2.04394,-4.78076 -3.07247,-7.16908 -0.60435,-1.40336 -1.25644,-2.78987 -2.04831,-4.09662 -2.26815,-3.74289 -5.60457,-6.71273 -8.19323,-10.24155 -0.72823,-0.99271 -1.39613,-2.02821 -2.04831,-3.07246 -1.7062,-2.73192 -3.30911,-5.5301 -5.12078,-8.19324 -0.86629,-1.27344 -1.80529,-2.57575 -2.04831,-4.09662 -0.10786,-0.67503 -0.0766,-1.36367 -0.0473,-2.04663 0.0293,-0.68297 0.0473,-1.3664 0.0473,-2.04999 l 0,-5.12077 c 0,-2.3914 -0.291,-4.79545 0,-7.16908 0.41254,-3.36502 2.32793,-6.32511 4.09662,-9.21739 3.58945,-5.86969 6.77652,-12.0021 9.21739,-18.43479 1.19569,-3.15114 2.23078,-6.41062 4.09662,-9.21739 1.74405,-2.62356 4.14056,-4.73859 6.14493,-7.16908 3.13463,-3.80105 5.27099,-8.3232 8.19324,-12.28986 1.29666,-1.76009 2.74313,-3.404 4.09662,-5.12077 2.41094,-3.05803 4.53143,-6.35261 7.16908,-9.21739 1.96247,-2.13145 4.19268,-4.00412 6.14493,-6.14493 3.45253,-3.78601 5.96542,-8.33025 9.21739,-12.28986 1.38843,-1.69056 2.91526,-3.27953 4.09662,-5.12077 1.23766,-1.92899 2.06507,-4.08629 3.07246,-6.14493 1.75086,-3.57794 4.04513,-6.85658 6.14493,-10.24155 2.09876,-3.38329 4.00837,-6.88199 6.14493,-10.24154 1.32111,-2.07734 2.72742,-4.09897 4.09662,-6.14493 2.31863,-3.46466 4.53744,-7.00822 7.16908,-10.24155 3.57619,-4.39383 8.01146,-8.24707 13.31401,-10.24154 2.02142,-0.76033 4.14153,-1.24169 6.14493,-2.04831 1.00484,-0.40457 1.99692,-0.89535 3.07246,-1.02416 1.01802,-0.12192 2.05107,0.0892 3.07247,0 1.40463,-0.12266 2.70402,-0.8034 4.09661,-1.02415 1.35087,-0.21414 2.72894,0.0123 4.09662,0 1.36898,-0.0123 2.75315,-0.26334 4.09662,0 1.47703,0.28952 2.78363,1.19023 3.78399,2.31482 1.00036,1.1246 1.72241,2.46713 2.36094,3.83011 0.32401,0.69162 0.63005,1.39408 1.02415,2.04831 0.19828,0.32917 0.4183,0.64514 0.60796,0.97935 0.18966,0.33421 0.34985,0.69045 0.4162,1.06895 0.11814,0.67392 -0.0676,1.36747 0,2.04831 0.0536,0.53907 0.26357,1.04886 0.48103,1.54503 0.21747,0.49616 0.44683,0.99434 0.54312,1.52744 0.12209,0.6759 0.0239,1.36939 -0.0559,2.05158 -0.0798,0.68218 -0.13917,1.38648 0.0559,2.04504 0.21719,0.73338 0.72972,1.34239 1.02416,2.04831 0.33249,0.79715 0.3736,1.68716 0.30695,2.54829 -0.0666,0.86113 -0.23585,1.7117 -0.30695,2.57248 -0.0281,0.34082 -0.0408,0.68462 0,1.02415 0.12919,1.0747 0.77802,2.01839 1.02415,3.07247 0.19455,0.8332 0.13867,1.70201 0.0857,2.55599 -0.053,0.85397 -0.0857,1.70916 -0.0857,2.56478 l 0,2.04831 c 0,0.68343 0.0963,1.37171 0,2.04831 -0.0784,0.55071 -0.32563,1.06771 -0.651,1.51889 -0.32537,0.45118 -0.72767,0.84132 -1.14462,1.20954 -0.8339,0.73644 -1.75758,1.42155 -2.301,2.39234 -0.37909,0.67722 -0.54615,1.44859 -0.79505,2.1837 -0.12445,0.36755 -0.27106,0.72969 -0.47253,1.06135 -0.20147,0.33165 -0.46001,0.63312 -0.78073,0.85157 -0.20817,0.14179 -0.44027,0.24742 -0.63995,0.40093 -0.0998,0.0768 -0.19144,0.16579 -0.26099,0.27078 -0.0695,0.10498 -0.11643,0.2267 -0.12321,0.35245 -0.01,0.17753 0.0596,0.34852 0.0959,0.52255 0.0182,0.087 0.0282,0.17682 0.016,0.26487 -0.0122,0.088 -0.0483,0.17468 -0.11192,0.23673 -0.0635,0.0618 -0.15057,0.0956 -0.23855,0.10611 -0.088,0.0105 -0.17724,-7.8e-4 -0.26387,-0.0194 -0.17326,-0.0372 -0.34537,-0.10407 -0.52173,-0.0867 -0.10109,0.01 -0.19861,0.0479 -0.283,0.10444 -0.0844,0.0565 -0.15584,0.13131 -0.21319,0.21515 -0.1147,0.16767 -0.172,0.36809 -0.20722,0.56816 -0.0352,0.20007 -0.0502,0.40344 -0.0897,0.60271 -0.0395,0.19927 -0.10579,0.39791 -0.23105,0.55785 -0.12,0.15322 -0.28833,0.263 -0.46689,0.34042 -0.17856,0.0774 -0.36845,0.12464 -0.55734,0.17155 -0.18888,0.0469 -0.37877,0.0942 -0.55731,0.17161 -0.17854,0.0774 -0.34684,0.18729 -0.46677,0.34057 -0.12521,0.16003 -0.19138,0.35876 -0.23078,0.5581 -0.0394,0.19934 -0.0543,0.40277 -0.0894,0.60289 -0.0352,0.20013 -0.0925,0.40061 -0.20731,0.56826 -0.0574,0.0838 -0.12895,0.15855 -0.21342,0.21501 -0.0845,0.0565 -0.18207,0.0943 -0.2832,0.10405 -0.17649,0.017 -0.34856,-0.0503 -0.52189,-0.0877 -0.0867,-0.0187 -0.176,-0.03 -0.26402,-0.0193 -0.088,0.0107 -0.17511,0.0448 -0.23825,0.107 -0.0632,0.0624 -0.0986,0.14918 -0.11026,0.23723 -0.0116,0.088 -0.001,0.17769 0.0174,0.26457 0.0369,0.17376 0.10553,0.34518 0.0929,0.52236 -0.009,0.12499 -0.0588,0.24495 -0.13073,0.34759 -0.0719,0.10263 -0.16513,0.18884 -0.26553,0.26383 -0.20078,0.14997 -0.43131,0.25729 -0.62789,0.41273 -0.18999,0.15022 -0.34294,0.34106 -0.49914,0.52616 -0.15621,0.1851 -0.32026,0.36863 -0.52502,0.498 -0.33339,0.21064 -0.74006,0.258 -1.12084,0.36058 -0.19039,0.0513 -0.37867,0.11833 -0.5445,0.22499 -0.16584,0.10667 -0.3089,0.25584 -0.38297,0.43858 -0.0649,0.16006 -0.0742,0.33756 -0.0619,0.50983 0.0123,0.17227 0.0453,0.34243 0.0619,0.51433 0.0795,0.82015 -0.23503,1.66694 -0.82096,2.24631 -0.58593,0.57936 -1.42952,0.88378 -2.2515,0.82615 -0.17158,-0.012 -0.34191,-0.0389 -0.51359,-0.0493 -0.17169,-0.0104 -0.347,-0.004 -0.51057,0.0493 -0.23381,0.076 -0.4285,0.2425 -0.58775,0.42981 -0.15926,0.18732 -0.2888,0.39772 -0.4364,0.59435 -0.58047,0.7733 -1.42183,1.31179 -2.04831,2.04831 -0.49941,0.58714 -0.85409,1.29649 -1.02415,2.0483 -0.63945,0.72433 -1.32398,1.40886 -2.04831,2.04831 -0.36273,0.32022 -0.73917,0.63314 -1.02416,1.02416 -0.14598,0.20029 -0.26635,0.41906 -0.423,0.61111 -0.15665,0.19205 -0.35894,0.36052 -0.60115,0.41304 -0.16774,0.0364 -0.34191,0.0148 -0.51238,-0.005 -0.17047,-0.02 -0.34563,-0.0379 -0.51178,0.005 -0.11911,0.0309 -0.22891,0.0924 -0.3249,0.16937 -0.096,0.077 -0.17878,0.16925 -0.25434,0.26636 -0.15111,0.19424 -0.27549,0.40994 -0.44491,0.58843 -0.1681,0.17711 -0.37494,0.31172 -0.56565,0.46422 -0.1907,0.15251 -0.37158,0.33175 -0.45851,0.55993 -0.0614,0.16129 -0.0721,0.33788 -0.0614,0.51014 0.0107,0.17227 0.0418,0.34254 0.0614,0.51402 0.12655,1.10725 -0.25856,2.26259 -1.02415,3.07246 z"
             style="fill:#d1438b;fill-opacity:1;fill-rule:evenodd;stroke:none;stroke-width:1px;stroke-linecap:butt;stroke-linejoin:miter;stroke-opacity:1" />
          <path
             inkscape:connector-curvature="0"
             inkscape:original-d="m 175.13045,-637.49298 c -11.97593,-7.98396 -1.64634,-1.87604 -9.2174,-5.12078 -1.40327,-0.6014 -2.77105,-1.29084 -4.09661,-2.04831 -1.06871,-0.61068 -1.97153,-1.49784 -3.07247,-2.04831 -1.64433,-0.82216 -3.431,-1.32412 -5.12077,-2.0483 -0.70164,-0.30071 -1.32412,-0.78276 -2.04831,-1.02416 -1.33533,-0.44511 -2.74321,-0.63747 -4.09662,-1.02415 -1.03802,-0.29658 -2.01387,-0.81244 -3.07246,-1.02416 -0.66951,-0.1339 -1.3788,0.1339 -2.04831,0 -1.05859,-0.21172 -2.01388,-0.81244 -3.07247,-1.02415 -0.66951,-0.13391 -1.36554,0 -2.04831,0 -1.36554,0 -2.73107,0 -4.09661,0 -0.85762,0 -4.34194,-0.19471 -5.12078,0 -0.74057,0.18514 -1.39373,0.63141 -2.04831,1.02415 -3.22989,1.93794 -2.70884,1.68469 -5.12077,4.09662 -1.02415,1.02415 -2.32728,1.83049 -3.07246,3.07246 -0.55543,0.92571 -0.62322,2.07013 -1.02416,3.07247 -0.2835,0.70876 -0.74065,1.33955 -1.02415,2.04831 -0.40094,1.00234 -0.62322,2.07012 -1.02416,3.07246 -0.2835,0.70876 -0.78276,1.32412 -1.02415,2.04831 -0.44511,1.33534 -0.57905,2.76129 -1.02416,4.09662 -1.36554,4.09662 -0.98274,-0.20709 -2.04831,5.12077 -0.1339,0.66951 0.1656,1.38593 0,2.04831 -1.48217,5.92868 -1.02415,-2.69213 -1.02415,5.12078 0,1.02415 0,2.0483 0,3.07246 0,0.34138 -0.2414,0.78276 0,1.02415 0.24139,0.2414 0.78276,-0.24139 1.02415,0 0.53978,0.53978 0.68277,1.36554 1.02416,2.04831 0.34138,0.68277 0.83901,1.30774 1.02415,2.04831 0.1656,0.66239 -0.30534,1.43762 0,2.04831 1.02416,2.04831 2.04831,1.53623 3.07247,3.07247 0.99498,1.49248 0.63938,2.13317 2.04831,3.07246 0.63515,0.42344 1.50853,0.48438 2.04831,1.02415 0.53977,0.53978 0.48437,1.50854 1.02415,2.04831 0.53978,0.53978 1.43762,0.56614 2.04831,1.02416 4.61691,3.46268 -0.84202,1.20629 5.12077,7.16908 1.07956,1.07956 2.87525,1.13228 4.09662,2.04831 1.54493,1.1587 2.64327,2.82494 4.09662,4.09662 1.28459,1.12402 2.80062,1.96161 4.09662,3.07246 1.83281,1.57098 3.23579,3.61279 5.12077,5.12078 0.96116,0.76892 2.11131,1.27938 3.07247,2.04831 1.50798,1.20638 2.58863,2.89023 4.09661,4.09661 0.96116,0.76893 2.30354,1.08716 3.07247,2.04831 0.67439,0.84299 0.54136,2.10689 1.02415,3.07247 0.55047,1.10093 1.49785,1.97153 2.04831,3.07246 0.48279,0.96558 0.68277,2.04831 1.02416,3.07247 1.32485,3.97454 2.55115,8.11939 3.07246,12.28985 0.12703,1.01625 -0.1131,2.05457 0,3.07247 0.22932,2.06386 0.81753,4.07867 1.02416,6.14492 0.13587,1.35877 0,2.73108 0,4.09662 0,2.3897 0,4.77939 0,7.16908 0,7.16909 0,14.33817 0,21.50725 0,3.41385 0,6.8277 0,10.24155 0,1.36554 -0.16938,2.74162 0,4.09662 0.35574,2.84593 1.2925,4.52377 2.0483,7.16908 0.38669,1.35341 0.46969,2.80286 1.02416,4.09662 0.48487,1.13136 1.49784,1.97153 2.04831,3.07246 0.48279,0.96559 0.42532,2.17422 1.02415,3.07247 0.80342,1.20512 2.14524,1.95979 3.07247,3.07246 1.57598,1.89118 2.35589,4.4042 4.09662,6.14493 1.44759,1.44759 5.56256,3.29336 7.16908,4.09662 4.68215,2.34107 -1.05859,-0.63516 5.12077,3.07246 2.51696,1.51018 3.3165,1.02416 6.14493,1.02416 0.68277,0 1.36554,0 2.04831,0 0.68277,0 1.38592,0.16559 2.04831,0 3.17034,-0.79259 1.18169,-1.32351 4.09662,-3.07247 0.92571,-0.55542 2.04831,-0.68277 3.07246,-1.02415 1.02416,-0.34139 2.04831,-0.68277 3.07247,-1.02416 1.02415,-0.34138 2.10688,-0.54136 3.07246,-1.02415 1.10093,-0.55047 1.97153,-1.49784 3.07246,-2.04831 0.96559,-0.48279 2.10688,-0.54136 3.07247,-1.02416 1.10093,-0.55046 1.97153,-1.49784 3.07246,-2.04831 2.06547,-1.03273 3.33102,-0.70599 5.12077,-2.0483 0.77247,-0.57935 1.27585,-1.46896 2.04831,-2.04831 1.65832,-1.24374 2.0283,-0.48206 3.07247,-2.04831 0.42343,-0.63516 0.60072,-1.41316 1.02415,-2.04831 0.26781,-0.40171 0.87149,-0.56614 1.02416,-1.02416 0.21591,-0.64773 -0.0966,-1.3724 0,-2.04831 0.24617,-1.72323 0.52396,-3.45345 1.02415,-5.12077 0.52827,-1.76088 1.34123,-3.42378 2.04831,-5.12077 1.47533,-3.5408 3.7483,-8.51556 5.12077,-12.28986 0.73786,-2.02911 1.24644,-4.14025 2.04831,-6.14493 0.56701,-1.41752 1.36554,-2.73108 2.04831,-4.09662 1.51304,-3.02606 3.11588,-5.94824 4.09662,-9.21739 0.5002,-1.66731 0.47369,-3.46937 1.02416,-5.12077 0.48279,-1.44837 1.36554,-2.73108 2.04831,-4.09662 0.34138,-0.68277 0.6314,-1.39373 1.02415,-2.04831 0.63328,-1.05547 1.49784,-1.97153 2.04831,-3.07246 0.15267,-0.30535 -0.15267,-0.71881 0,-1.02416 0.55047,-1.10093 1.61612,-1.91995 2.04831,-3.07246 1.15806,-3.08815 1.02415,-4.43991 1.02415,-7.16908 0,-0.68277 -0.1339,-1.3788 0,-2.04831 0.21172,-1.05859 0.81244,-2.01388 1.02416,-3.07247 0.1339,-0.66951 0,-1.36554 0,-2.04831 0,-2.04831 0,-4.09662 0,-6.14492 0,-0.68277 0.30534,-1.43763 0,-2.04831 -0.43182,-0.86365 -1.46896,-1.27585 -2.04831,-2.04831 -0.45802,-0.61069 -0.60072,-1.41316 -1.02416,-2.04831 -0.2678,-0.40171 -0.68277,-0.68277 -1.02415,-1.02416 -1.16855,-1.16855 -4.1646,-3.84588 -5.12077,-5.12077 -0.45802,-0.61069 -0.63141,-1.39373 -1.02416,-2.04831 -0.63328,-1.05547 -1.41502,-2.01699 -2.04831,-3.07246 -0.39274,-0.65458 -0.60072,-1.41316 -1.02415,-2.04831 -0.78292,-1.17438 -3.45649,-2.59237 -4.09662,-3.07247 -0.38623,-0.28967 -0.68277,-0.68277 -1.02416,-1.02415 -1.16854,-1.16855 -3.84588,-4.16461 -5.12077,-5.12077 -2.99075,-2.24307 -1.40885,0.51122 -4.09662,-3.07247 -0.45801,-0.61069 -0.48438,-1.50853 -1.02415,-2.04831 -0.53978,-0.53978 -1.41316,-0.60072 -2.04831,-1.02415 -0.80341,-0.53561 -1.2449,-1.5127 -2.04831,-2.04831 -0.19077,-0.12718 -4.03099,-1.98268 -4.09662,-2.04831 -0.2414,-0.2414 0.15267,-0.71881 0,-1.02416 -4.83009,-9.66018 -0.19188,0.22426 -3.07246,-4.09661 -0.42344,-0.63516 -0.56614,-1.43763 -1.02416,-2.04831 -0.86902,-1.1587 -2.26905,-1.86735 -3.07246,-3.07247 -1.94019,0.11663 -0.68277,-2.38969 -1.02416,-3.07246 -0.45387,-0.90775 -2.45093,-2.14016 -3.07246,-3.07247 -0.42344,-0.63515 -0.60072,-1.41315 -1.02416,-2.04831 -0.2678,-0.4017 -0.68277,-0.68277 -1.02415,-1.02415 -0.34139,-0.34138 -0.59233,-0.80824 -1.02415,-1.02415 -0.30535,-0.15268 -0.71882,0.15267 -1.02416,0 -0.43182,-0.21592 -0.62245,-0.75635 -1.02415,-1.02416 -0.63516,-0.42344 -1.41316,-0.60072 -2.04831,-1.02415 -0.40171,-0.26781 -0.59234,-0.80825 -1.02416,-1.02416 -0.30534,-0.15267 -0.68277,0 -1.02415,0 -0.68277,-0.34138 -1.41316,-0.60072 -2.04831,-1.02415 -0.93231,-0.62154 -2.16472,-2.61859 -3.07247,-3.07247 -0.30534,-0.15267 -0.71881,0.15267 -1.02415,0 -0.78234,-0.39117 -2.37896,-2.84129 -3.07246,-3.07246 -0.64774,-0.21591 -1.48022,0.37873 -2.04831,0 -0.63516,-0.42344 -0.60072,-1.41316 -1.02416,-2.04831 -0.28394,-0.42591 -3.73032,-3.91347 -4.09662,-4.09662 -0.30534,-0.15267 -0.71881,0.15267 -1.02415,0 -0.43182,-0.21591 -0.59234,-0.80824 -1.02416,-1.02415 -0.30534,-0.15268 -0.68277,0 -1.02415,0 -0.68277,0 -1.36554,0 -2.04831,0 -0.46124,0 -2.76078,0.15584 -3.07246,0 -0.43183,-0.21591 -0.68277,-0.68277 -1.02416,-1.02416 -1.02415,-0.34138 -2.04831,-0.68277 -3.07246,-1.02415 z"
             inkscape:path-effect="#path-effect5876"
             id="path6232"
             d="m 175.13045,-637.49298 c -2.93415,-1.94143 -6.0189,-3.65518 -9.2174,-5.12078 -1.38917,-0.63654 -2.80625,-1.2298 -4.09661,-2.04831 -1.03994,-0.65966 -1.98996,-1.4611 -3.07247,-2.04831 -1.61755,-0.87744 -3.4664,-1.24244 -5.12077,-2.0483 -0.68661,-0.33445 -1.33782,-0.74399 -2.04831,-1.02416 -1.31105,-0.51699 -2.76234,-0.57045 -4.09662,-1.02415 -1.02607,-0.3489 -1.9923,-0.93588 -3.07246,-1.02416 -0.68139,-0.0557 -1.37096,0.0927 -2.04831,0 -0.53667,-0.0734 -1.04029,-0.29464 -1.53593,-0.51316 -0.49564,-0.21852 -0.99966,-0.43907 -1.53654,-0.51099 -0.6773,-0.0907 -1.36496,0 -2.04831,0 l -4.09661,0 c -0.85597,0 -1.71145,-0.0353 -2.56551,-0.0924 -0.85406,-0.0572 -1.72539,-0.11729 -2.55527,0.0924 -0.74405,0.18804 -1.41488,0.59086 -2.04831,1.02415 -1.80485,1.23458 -3.39697,2.75119 -5.12077,4.09662 -0.57592,0.44951 -1.16762,0.88079 -1.70788,1.37257 -0.54027,0.49179 -1.03167,1.04957 -1.36458,1.69989 -0.49267,0.96239 -0.61339,2.07237 -1.02416,3.07247 -0.29015,0.70642 -0.72073,1.34748 -1.02415,2.04831 -0.42923,0.99144 -0.595,2.08099 -1.02416,3.07246 -0.30336,0.70085 -0.73386,1.34195 -1.02415,2.04831 -0.53583,1.30382 -0.56863,2.76262 -1.02416,4.09662 -0.29883,0.87511 -0.77292,1.67755 -1.19182,2.50195 -0.41891,0.82439 -0.79005,1.69649 -0.85649,2.61882 -0.0491,0.68155 0.0702,1.36861 0,2.04831 -0.09,0.87089 -0.46715,1.68257 -0.70944,2.5239 -0.24229,0.84134 -0.31471,1.72135 -0.31471,2.59688 l 0,3.07246 c 0,0.1742 -0.0188,0.3477 -0.0489,0.51927 -0.0151,0.0858 -0.0295,0.17235 -0.0272,0.25942 0.002,0.0871 0.0231,0.17635 0.0761,0.24546 0.0549,0.0716 0.14064,0.11555 0.22934,0.13212 0.0887,0.0166 0.18047,0.008 0.26864,-0.0115 0.17633,-0.0384 0.34572,-0.11805 0.52617,-0.12067 0.10465,-0.002 0.2091,0.0236 0.30356,0.0686 0.0945,0.0451 0.17904,0.10979 0.25042,0.18633 0.14276,0.15308 0.23102,0.3504 0.28345,0.55305 0.10485,0.40529 0.0748,0.83693 0.18673,1.24032 0.10256,0.36963 0.31848,0.69567 0.52674,1.01781 0.20827,0.32213 0.41563,0.65572 0.49741,1.0305 0.0731,0.3349 0.0414,0.68275 0.007,1.0238 -0.0344,0.34105 -0.0709,0.68773 -0.007,1.02451 0.069,0.36386 0.25349,0.69911 0.4912,0.98308 0.23771,0.28397 0.52763,0.51992 0.82945,0.73451 0.60365,0.42917 1.2731,0.78972 1.75182,1.35488 0.40194,0.47452 0.64138,1.06103 0.91638,1.61879 0.275,0.55776 0.60991,1.11571 1.13193,1.45367 0.32293,0.20906 0.6973,0.32044 1.05895,0.45158 0.36165,0.13114 0.72634,0.29184 0.98936,0.57257 0.26282,0.28052 0.39906,0.65359 0.52421,1.01704 0.12515,0.36346 0.25121,0.73819 0.49994,1.03127 0.24978,0.29433 0.60326,0.48122 0.96289,0.62153 0.35963,0.14032 0.73465,0.24145 1.08542,0.40263 0.67924,0.31212 1.24263,0.84013 1.68698,1.44124 0.44434,0.60112 0.77759,1.27618 1.08647,1.9569 0.30887,0.68071 0.59657,1.37263 0.96038,2.02564 0.36382,0.653 0.8091,1.27109 1.38694,1.7453 0.59198,0.48581 1.30134,0.8041 2.0108,1.09239 0.70946,0.2883 1.43347,0.55482 2.08582,0.95592 0.82539,0.5075 1.50879,1.21382 2.14618,1.94358 0.63739,0.72975 1.24085,1.49327 1.95044,2.15304 1.25103,1.16318 2.79304,1.96849 4.09662,3.07246 1.84501,1.5625 3.17276,3.68873 5.12077,5.12078 0.99244,0.72958 2.12456,1.26174 3.07247,2.04831 0.74532,0.61845 1.35759,1.3783 1.98766,2.11383 0.63006,0.73552 1.29327,1.46063 2.10895,1.98278 0.52335,0.33502 1.09868,0.57937 1.64412,0.87707 0.54544,0.29769 1.07363,0.66105 1.42835,1.17124 0.30971,0.44545 0.46926,0.9767 0.59501,1.50446 0.12576,0.52776 0.22367,1.06589 0.42914,1.56801 0.46734,1.14209 1.4448,1.9961 2.04831,3.07246 0.52963,0.94459 0.75252,2.02415 1.02416,3.07247 1.0628,4.10159 2.98112,8.05378 3.07246,12.28985 0.0221,1.02417 -0.0643,2.05008 0,3.07247 0.13039,2.07447 0.87583,4.07165 1.02416,6.14492 0.0975,1.36239 0,2.73075 0,4.09662 l 0,7.16908 0,21.50725 0,10.24155 c 0,1.36607 -0.12283,2.73608 0,4.09662 0.22397,2.48077 1.5122,4.7366 2.0483,7.16908 0.30412,1.37993 0.37438,2.84184 1.02416,4.09662 0.56712,1.09516 1.53794,1.94974 2.04831,3.07246 0.44768,0.98481 0.51347,2.11881 1.02415,3.07247 0.3438,0.64202 0.87108,1.16611 1.42369,1.64047 0.5526,0.47436 1.13993,0.91096 1.64878,1.43199 0.86269,0.88333 1.47076,1.97832 2.06293,3.06176 0.59218,1.08344 1.18851,2.18307 2.03369,3.08317 0.94774,1.00932 2.16698,1.72223 3.41442,2.3229 1.24745,0.60066 2.54266,1.1044 3.75466,1.77372 1.74414,0.96319 3.30103,2.2611 5.12077,3.07246 1.91269,0.8528 4.05074,1.02416 6.14493,1.02416 l 2.04831,0 c 0.34182,0 0.68356,0.009 1.02504,0.0244 0.34149,0.0151 0.68598,0.0311 1.02327,-0.0244 0.42718,-0.0703 0.82903,-0.25786 1.18704,-0.50126 0.35802,-0.24341 0.67508,-0.54201 0.97731,-0.85197 0.60447,-0.61991 1.17268,-1.30367 1.93227,-1.71924 0.47427,-0.25947 1.00074,-0.40566 1.52127,-0.55161 0.52053,-0.14596 1.03833,-0.30159 1.55119,-0.47254 l 3.07247,-1.02416 c 1.02503,-0.34168 2.10206,-0.54902 3.07246,-1.02415 1.10756,-0.54229 1.96038,-1.51535 3.07246,-2.04831 0.97492,-0.46723 2.09211,-0.56845 3.07247,-1.02416 1.11806,-0.51972 1.98599,-1.46544 3.07246,-2.04831 0.81442,-0.43692 1.72416,-0.6558 2.61246,-0.91094 0.88831,-0.25514 1.78561,-0.56127 2.50831,-1.13736 0.75627,-0.60285 1.27594,-1.46623 2.04831,-2.04831 0.4962,-0.37395 1.0763,-0.61631 1.62825,-0.90162 0.55196,-0.28531 1.09655,-0.63173 1.44422,-1.14669 0.2145,-0.31771 0.34324,-0.68387 0.48102,-1.0416 0.13777,-0.35773 0.29087,-0.71806 0.54313,-1.00671 0.15958,-0.1826 0.35392,-0.33071 0.5392,-0.48716 0.18528,-0.15646 0.36552,-0.32596 0.48496,-0.537 0.17186,-0.30365 0.20308,-0.66868 0.17218,-1.01622 -0.0309,-0.34754 -0.11942,-0.68719 -0.17218,-1.03209 -0.13323,-0.8709 -0.0361,-1.76464 0.17383,-2.6203 0.20992,-0.85566 0.53057,-1.6795 0.85032,-2.50047 0.66723,-1.71312 1.33462,-3.42648 2.04831,-5.12077 1.72345,-4.09148 3.7189,-8.07735 5.12077,-12.28986 0.68199,-2.04933 1.22239,-4.14926 2.04831,-6.14493 0.58415,-1.41148 1.30716,-2.76088 2.04831,-4.09662 1.63793,-2.95195 3.39623,-5.91493 4.09662,-9.21739 0.36165,-1.70523 0.43524,-3.48011 1.02416,-5.12077 0.51626,-1.43822 1.40655,-2.70985 2.04831,-4.09662 0.32115,-0.69396 0.58361,-1.42329 1.02415,-2.04831 0.36063,-0.51164 0.82907,-0.93647 1.23435,-1.41352 0.40528,-0.47705 0.75779,-1.0355 0.81396,-1.65894 0.0307,-0.34027 -0.0287,-0.68372 0,-1.02416 0.0527,-0.62443 0.39678,-1.1882 0.79941,-1.66838 0.40263,-0.48019 0.8721,-0.90337 1.2489,-1.40408 0.744,-0.98867 1.08658,-2.23215 1.18322,-3.46572 0.0966,-1.23356 -0.0367,-2.47208 -0.15907,-3.70336 -0.0678,-0.682 -0.13173,-1.37573 0,-2.04831 0.10405,-0.53123 0.3267,-1.03052 0.5391,-1.52844 0.21239,-0.49791 0.41812,-1.00686 0.48506,-1.54403 0.0845,-0.67803 0,-1.36504 0,-2.04831 l 0,-6.14492 c 0,-0.34275 0.0164,-0.68522 0.0431,-1.02693 0.0266,-0.34171 0.0544,-0.69277 -0.0431,-1.02138 -0.0697,-0.23503 -0.20333,-0.44768 -0.36578,-0.63126 -0.16245,-0.18359 -0.35349,-0.33972 -0.55071,-0.48532 -0.39443,-0.2912 -0.82406,-0.55008 -1.13182,-0.93173 -0.24036,-0.29807 -0.39337,-0.65568 -0.53514,-1.01138 -0.14178,-0.35569 -0.27708,-0.71803 -0.48902,-1.03693 -0.26832,-0.40374 -0.64706,-0.71953 -1.02415,-1.02416 -1.89077,-1.52746 -3.94071,-2.99577 -5.12077,-5.12077 -0.37069,-0.66753 -0.6457,-1.38516 -1.02416,-2.04831 -0.61062,-1.06995 -1.47978,-1.97956 -2.04831,-3.07246 -0.35276,-0.67813 -0.58679,-1.42141 -1.02415,-2.04831 -0.49144,-0.70442 -1.20874,-1.21714 -1.94062,-1.66666 -0.73188,-0.44952 -1.49788,-0.8539 -2.156,-1.40581 -0.37025,-0.3105 -0.70186,-0.66412 -1.02416,-1.02415 -1.61658,-1.80579 -3.06664,-3.83439 -5.12077,-5.12077 -0.73461,-0.46004 -1.53121,-0.81407 -2.26908,-1.26887 -0.73787,-0.4548 -1.43267,-1.032 -1.82754,-1.8036 -0.17526,-0.34247 -0.28644,-0.71339 -0.42738,-1.07135 -0.14095,-0.35797 -0.31791,-0.71193 -0.59677,-0.97696 -0.27821,-0.2644 -0.63888,-0.42269 -0.99772,-0.55885 -0.35885,-0.13615 -0.72798,-0.25738 -1.05059,-0.4653 -0.40775,-0.26279 -0.71794,-0.6487 -1.02163,-1.02697 -0.3037,-0.37827 -0.61621,-0.76282 -1.02668,-1.02134 -0.34052,-0.21446 -0.73326,-0.33186 -1.12743,-0.41301 -0.39416,-0.0811 -0.79487,-0.12852 -1.1876,-0.21633 -0.39273,-0.0878 -0.78243,-0.21898 -1.11162,-0.45046 -0.32919,-0.23148 -0.59431,-0.57326 -0.66997,-0.96851 -0.0643,-0.33606 0.01,-0.68214 0,-1.02416 -0.0125,-0.43708 -0.16366,-0.86278 -0.38735,-1.2385 -0.22368,-0.37572 -0.51813,-0.70481 -0.8327,-1.00853 -0.62913,-0.60745 -1.35308,-1.13163 -1.85241,-1.84958 -0.43645,-0.62754 -0.67606,-1.36778 -1.02416,-2.04831 -0.67044,-1.31071 -1.76175,-2.40202 -3.07246,-3.07247 0.0412,-1.10234 -0.32975,-2.21533 -1.02416,-3.07246 -0.45792,-0.56523 -1.0412,-1.01258 -1.60075,-1.47742 -0.55955,-0.46485 -1.11008,-0.96387 -1.47171,-1.59505 -0.38065,-0.66437 -0.54005,-1.45509 -1.02416,-2.04831 -0.3056,-0.37447 -0.72292,-0.64616 -1.02415,-1.02415 -0.15412,-0.19339 -0.27517,-0.4114 -0.42975,-0.60442 -0.0773,-0.0965 -0.16321,-0.18687 -0.26221,-0.26095 -0.099,-0.0741 -0.21156,-0.13164 -0.33219,-0.15878 -0.1675,-0.0377 -0.34191,-0.0157 -0.51237,0.005 -0.17046,0.0205 -0.34583,0.0392 -0.51179,-0.005 -0.11881,-0.0315 -0.22784,-0.0943 -0.32277,-0.17237 -0.0949,-0.0781 -0.1764,-0.1713 -0.25112,-0.2689 -0.14943,-0.1952 -0.27468,-0.41083 -0.45026,-0.58289 -0.27467,-0.26916 -0.64786,-0.40878 -1.01172,-0.53325 -0.36386,-0.12447 -0.73988,-0.24625 -1.03659,-0.4909 -0.18724,-0.15439 -0.33409,-0.35086 -0.48841,-0.53816 -0.15432,-0.18729 -0.32223,-0.37067 -0.53575,-0.486 -0.31301,-0.16906 -0.71114,-0.16906 -1.02415,0 -0.77276,-0.0942 -1.50932,-0.46244 -2.04831,-1.02415 -0.5187,-0.54056 -0.84394,-1.23373 -1.27808,-1.84429 -0.21706,-0.30528 -0.4646,-0.593 -0.76465,-0.81724 -0.30006,-0.22423 -0.6562,-0.38298 -1.02974,-0.41094 -0.34106,-0.0255 -0.68696,0.0572 -1.02415,0 -0.36988,-0.0628 -0.69557,-0.29096 -0.94415,-0.57195 -0.24857,-0.28099 -0.42945,-0.61415 -0.60626,-0.94503 -0.17682,-0.33088 -0.35376,-0.66563 -0.5961,-0.95202 -0.24235,-0.28638 -0.55918,-0.52453 -0.92595,-0.60346 -0.33715,-0.0726 -0.68642,-0.007 -1.02748,0.0443 -0.34106,0.0511 -0.70125,0.0853 -1.02083,-0.0443 -0.18547,-0.0752 -0.34727,-0.20308 -0.47542,-0.35682 -0.12815,-0.15374 -0.22363,-0.33288 -0.29454,-0.52004 -0.14183,-0.37433 -0.18627,-0.77696 -0.2542,-1.17145 -0.18139,-1.05334 -0.55354,-2.1014 -1.25759,-2.9056 -0.35203,-0.4021 -0.78448,-0.73742 -1.2736,-0.95275 -0.48913,-0.21533 -1.03557,-0.30796 -1.56543,-0.23827 -0.17217,0.0226 -0.34215,0.0621 -0.51524,0.0761 -0.17308,0.014 -0.35326,9.5e-4 -0.50891,-0.0761 -0.10994,-0.0544 -0.20297,-0.13845 -0.28235,-0.23196 -0.0794,-0.0935 -0.14617,-0.19687 -0.21443,-0.29878 -0.0683,-0.10191 -0.13864,-0.20321 -0.22406,-0.29124 -0.0854,-0.088 -0.18713,-0.16286 -0.30332,-0.20217 -0.16251,-0.055 -0.33939,-0.0394 -0.51029,-0.0244 -0.1709,0.0151 -0.3423,0.0244 -0.51386,0.0244 l -2.04831,0 c -0.51497,0 -1.02937,0.0294 -1.54214,0.0769 -0.51277,0.0475 -1.04536,0.0963 -1.53032,-0.0769 -0.46984,-0.16781 -0.85635,-0.55432 -1.02416,-1.02416 l -3.07246,-1.02415 z"
             style="fill:#d1438b;fill-opacity:1;fill-rule:evenodd;stroke:none;stroke-width:1px;stroke-linecap:butt;stroke-linejoin:miter;stroke-opacity:1" />
          <path
             inkscape:connector-curvature="0"
             inkscape:original-d="m 75.787445,-299.52195 c -7.851853,0 -15.703705,0 -23.555557,0 -1.024155,0 -2.04831,0 -3.072464,0 -1.706925,0 -3.454496,-0.37028 -5.120774,0 -1.490364,0.3312 -2.599547,1.7489 -4.096618,2.04831 -2.008533,0.40171 -4.106784,-0.20381 -6.144928,0 -2.642759,-1.05908 -4.027749,1.62488 -6.144928,2.04831 -1.004266,0.20086 -2.078888,-0.24839 -3.072464,0 -0.468376,0.1171 -0.622448,0.75635 -1.024155,1.02416 -0.635154,0.42343 -1.508532,0.48438 -2.048309,1.02415 -0.06563,0.0656 -1.921129,3.90585 -2.048309,4.09662 -0.535609,0.80341 -1.512701,1.2449 -2.04831,2.04831 -0.423436,0.63515 -0.566139,1.43762 -1.024154,2.04831 -0.57935,0.77247 -1.36554,1.36554 -2.04831,2.04831 -4.8368522,4.83685 -1.25685,1.54652 -7.1690824,6.14493 -3.4509371,2.68406 -6.65997958,5.68614 -10.2415466,8.19323 -1.6307621,1.14154 -3.4138488,2.04831 -5.1207733,3.07247 -1.7069244,1.02415 -3.3806767,2.10574 -5.1207737,3.07246 -1.334593,0.74144 -2.693341,1.44691 -4.096618,2.04831 -0.992267,0.42526 -2.146754,0.46873 -3.072464,1.02416 -0.82798,0.49678 -1.244896,1.5127 -2.04831,2.04831 -0.284049,0.18936 -0.871482,-0.30535 -1.024154,0 -0.305344,0.61068 0,1.36554 0,2.0483 0,2.04831 0,4.09662 0,6.14493 0,0.90296 -0.218163,2.19981 0,3.07247 0.26183,1.04732 0.541363,2.10688 1.024154,3.07246 0.550467,1.10093 1.36554,2.04831 2.04831,3.07246 1.511418,2.26713 2.755076,4.5678 5.120773,6.14493 0.898243,0.59883 2.146754,0.46873 3.072464,1.02416 0.82798,0.49679 1.275844,1.46896 2.048309,2.04831 0.6106883,0.45801 1.413156,0.60072 2.0483097,1.02415 1.3917157,0.92781 5.3369855,4.20473 7.1690826,5.12077 1.6443274,0.82217 3.4138489,1.36554 5.1207733,2.04831 1.7069245,0.68277 3.3372499,1.60243 5.1207733,2.04831 2.3418811,0.58547 4.8087111,0.51836 7.1690831,1.02416 2.430151,0.52074 4.757968,1.44553 7.169082,2.04831 1.688755,0.42219 3.484849,0.42927 5.120773,1.02415 2.152202,0.78262 3.923225,2.51704 6.144928,3.07247 1.987152,0.49678 4.105031,-0.18545 6.144928,0 1.73358,0.15759 3.387194,0.86655 5.120774,1.02415 2.039897,0.18545 4.096618,0 6.144928,0 2.048309,0 4.102652,0.1571 6.144928,0 6.588552,-0.50681 7.978774,-1.25549 14.338165,-3.07246 2.389694,-0.68277 4.892139,-1.05215 7.169082,-2.04831 3.220085,-1.40879 6.107106,-3.48378 9.217392,-5.12078 3.377555,-1.77766 6.996256,-3.11178 10.241547,-5.12077 3.948068,-2.44404 7.402208,-5.61758 11.265698,-8.19324 4.33583,-2.89055 8.97819,-5.30268 13.31401,-8.19323 3.86349,-2.57566 7.31764,-5.7492 11.26571,-8.19324 3.24529,-2.00899 6.86399,-3.34311 10.24154,-5.12077 3.11029,-1.637 6.03716,-3.6242 9.21739,-5.12078 2.63917,-1.24196 5.6196,-1.69985 8.19324,-3.07246 2.59121,-1.38198 4.5834,-3.72848 7.16908,-5.12078 1.90104,-1.02363 4.14025,-1.24643 6.14493,-2.0483 1.41752,-0.56701 2.66711,-1.51225 4.09662,-2.04831 1.31795,-0.49423 2.74321,-0.63747 4.09662,-1.02416 2.07603,-0.59315 4.05028,-1.52465 6.14493,-2.04831 4.80891,-1.20223 5.73778,-0.57037 10.24154,-3.07246 1.49212,-0.82896 2.73108,-2.04831 4.09662,-3.07247 1.36554,-1.02415 2.88964,-1.86548 4.09662,-3.07246 1.20698,-1.20698 1.96161,-2.80062 3.07246,-4.09662 0.94259,-1.09969 2.20344,-1.91376 3.07247,-3.07246 0.88005,-1.17341 7.07416,-12.11358 7.16908,-12.28986 1.25901,-2.33815 4.33776,-8.39464 5.12077,-11.2657 0.54638,-2.00339 0.61691,-4.10869 1.02416,-6.14493 0.27605,-1.38023 0.84957,-2.69992 1.02415,-4.09662 0.16938,-1.35499 -0.16937,-2.74162 0,-4.09661 1.52095,-12.16755 1.02416,6.16413 1.02416,-10.24155 0,-3.75523 0,-7.51047 0,-11.2657 0,-1.36554 0.47947,-2.81803 0,-4.09662 -0.59934,-1.59824 -2.1678,-2.64915 -3.07247,-4.09662 -0.80916,-1.29466 -1.07092,-2.92376 -2.0483,-4.09662 -0.788,-0.94559 -2.2021,-1.17794 -3.07247,-2.04831 -1.20698,-1.20698 -1.86549,-2.88964 -3.07246,-4.09662 -0.2623,-0.2623 -6.15142,-4.68463 -7.16909,-5.12077 -1.29375,-0.55447 -2.73107,-0.68277 -4.09661,-1.02415 -1.36554,-0.34139 -2.69767,-0.86872 -4.09662,-1.02416 -1.69649,-0.1885 -3.41385,0 -5.12078,0 -4.438,0 -8.876,0 -13.31401,0 -2.04831,0 -4.09662,0 -6.14492,0 -2.04831,0 -4.10679,-0.20381 -6.14493,0 -1.40058,0.14006 -2.72257,0.71881 -4.09662,1.02416 -1.69928,0.37761 -3.49088,0.41294 -5.12077,1.02415 -3.86179,1.44817 -3.20887,3.20887 -6.14493,6.14493 -1.20698,1.20698 -2.82085,1.93844 -4.09662,3.07246 -1.80421,1.60375 -3.3265,3.50592 -5.12077,5.12078 -1.53905,1.38514 -7.2097,5.73501 -9.2174,7.16908 -1.00161,0.71543 -2.08776,1.30978 -3.07246,2.04831 -5.9062,4.42965 -5.53178,4.50762 -11.2657,10.24154 -1.70693,1.70693 -3.41385,3.41385 -5.12077,5.12078 -1.02416,1.02415 -2.12988,1.97277 -3.07247,3.07246 -1.11085,1.296 -1.86548,2.88964 -3.07246,4.09662 -0.87037,0.87036 -2.11131,1.27938 -3.07247,2.04831 -5.06748,4.05398 1.2265,-0.20235 -4.09662,5.12077 -0.87036,0.87037 -2.1113,1.27939 -3.07246,2.04831 -0.75399,0.6032 -1.36554,1.36554 -2.04831,2.04831 -0.68277,0.68277 -1.468959,1.27584 -2.048308,2.04831 -0.916032,1.22138 -1.201438,2.82631 -2.048309,4.09662 -0.267805,0.40171 -0.68277,0.68277 -1.024155,1.02415 -0.341385,0.34139 -0.592333,0.80825 -1.024155,1.02416 -0.305344,0.15267 -0.71881,-0.15267 -1.024154,0 -1.639858,0.81993 -0.408452,1.22838 -2.04831,2.04831 -0.305344,0.15267 -0.71881,-0.15267 -1.024154,0 -0.431822,0.21591 -0.622448,0.75635 -1.024155,1.02415 -0.635154,0.42344 -1.508532,0.48438 -2.048309,1.02416 -0.241396,0.24139 0.241395,0.78276 0,1.02415 -0.241396,0.2414 -0.718811,-0.15267 -1.024155,0 -1.541137,0.77057 -0.507172,1.27774 -2.048309,2.04831 -0.305344,0.15267 -0.718811,-0.15267 -1.024155,0 -0.863643,0.43182 -1.184666,1.61649 -2.048309,2.04831 -0.305344,0.15267 -0.782759,-0.2414 -1.024155,0 -0.241395,0.2414 0.305344,0.87148 0,1.02416 -0.610688,0.30534 -1.365539,0 -2.048309,0 -1.024155,0.68276 -2.04831,1.36553 -3.072464,2.0483 z"
             inkscape:path-effect="#path-effect5880"
             id="path6234"
             d="m 75.787445,-299.52195 -23.555557,0 -3.072464,0 c -0.855426,0 -1.710467,-0.0312 -2.564395,-0.0818 -0.853929,-0.0506 -1.721382,-0.10405 -2.556379,0.0818 -0.747957,0.16646 -1.438621,0.52484 -2.098562,0.91423 -0.659942,0.38939 -1.301517,0.81473 -1.998056,1.13408 -1.920553,0.88053 -4.224375,0.88053 -6.144928,0 -0.765345,0.82624 -1.741474,1.45563 -2.809923,1.81178 -1.068449,0.35615 -2.226985,0.43832 -3.335005,0.23653 -0.519095,-0.0945 -1.027708,-0.25017 -1.552592,-0.30396 -0.262442,-0.0269 -0.528843,-0.0279 -0.788778,0.0172 -0.259936,0.0451 -0.513679,0.13738 -0.731094,0.28681 -0.39879,0.27409 -0.649474,0.71793 -1.024155,1.02416 -0.296674,0.24247 -0.658541,0.38875 -1.016146,0.52633 -0.357604,0.13757 -0.722136,0.27267 -1.032163,0.49782 -0.313304,0.22753 -0.55857,0.53944 -0.746071,0.87822 -0.187501,0.33878 -0.319869,0.70513 -0.436522,1.07435 -0.233306,0.73843 -0.415605,1.51388 -0.865716,2.14405 -0.562743,0.78786 -1.484214,1.26142 -2.04831,2.04831 -0.445483,0.62143 -0.633939,1.39077 -1.024154,2.04831 -0.495751,0.83538 -1.286926,1.44505 -2.04831,2.04831 -2.467277,1.95487 -4.8137527,4.05653 -7.1690824,6.14493 -3.2741952,2.90313 -6.58222671,5.79367 -10.2415466,8.19323 -1.6648757,1.09172 -3.3962608,2.07762 -5.1207733,3.07247 -1.7244109,0.99479 -3.4437847,1.99965 -5.1207737,3.07246 -1.293183,0.82728 -2.598888,1.71139 -4.096618,2.04831 -0.535807,0.12053 -1.086165,0.16807 -1.620938,0.29311 -0.534773,0.12504 -1.067754,0.33819 -1.451526,0.73105 -0.352679,0.36103 -0.550406,0.84189 -0.831975,1.26075 -0.140784,0.20943 -0.305584,0.40631 -0.51059,0.55346 -0.205006,0.14714 -0.453525,0.24218 -0.705745,0.2341 -0.17528,-0.006 -0.345056,-0.0598 -0.518564,-0.0853 -0.08676,-0.0127 -0.175184,-0.0183 -0.262119,-0.007 -0.08694,0.0114 -0.172616,0.0405 -0.243471,0.0921 -0.07189,0.0524 -0.126416,0.12669 -0.161715,0.20836 -0.0353,0.0817 -0.052,0.1706 -0.05585,0.25948 -0.0077,0.17777 0.03364,0.35371 0.07675,0.52634 0.08623,0.34527 0.140811,0.69825 0.140811,1.05412 l 0,6.14493 c 0,1.02459 -0.09605,2.05239 0,3.07247 0.101951,1.08269 0.491744,2.12422 1.024154,3.07246 0.602836,1.07367 1.385246,2.03491 2.04831,3.07246 0.73281,1.14669 1.318488,2.38448 2.087606,3.50714 0.769118,1.12266 1.762151,2.15155 3.033167,2.63779 0.506435,0.19374 1.042221,0.29587 1.568386,0.42687 0.526165,0.131 1.053543,0.29558 1.504078,0.59729 0.402271,0.26939 0.7272,0.63724 1.040884,1.00602 0.313684,0.36877 0.624425,0.74614 1.007425,1.04229 0.6055885,0.46826 1.3525355,0.70492 2.0483097,1.02415 2.6758979,1.22772 4.6003748,3.68221 7.1690826,5.12077 1.60584162,0.89933 3.4091736,1.3716 5.1207733,2.04831 1.7110974,0.67651 3.3457734,1.56364 5.1207733,2.04831 2.3310581,0.6365 4.7994871,0.5509 7.1690831,1.02416 2.438762,0.48708 4.731083,1.55743 7.169082,2.04831 1.709609,0.34422 3.490803,0.40411 5.120773,1.02415 1.074175,0.40862 2.042802,1.0463 3.023554,1.64542 0.980751,0.59912 2.000884,1.17147 3.121374,1.42705 1.00166,0.22848 2.043447,0.19437 3.068085,0.11925 1.024637,-0.0751 2.051901,-0.19009 3.076843,-0.11925 1.738413,0.12015 3.397042,0.76868 5.120774,1.02415 2.029432,0.30077 4.093956,0.0507 6.144928,0 2.048001,-0.0506 4.098662,0.0983 6.144928,0 4.892365,-0.23507 9.590538,-1.86808 14.338165,-3.07246 2.411164,-0.61167 4.861656,-1.11899 7.169082,-2.04831 3.263574,-1.31441 6.133074,-3.42798 9.217392,-5.12078 3.34708,-1.83701 6.95303,-3.18087 10.241547,-5.12077 4.001628,-2.36057 7.444758,-5.55018 11.265698,-8.19324 4.28684,-2.96534 9.02733,-5.22766 13.31401,-8.19323 3.82081,-2.64327 7.26369,-5.8333 11.26571,-8.19324 3.28882,-1.93938 6.89544,-3.28198 10.24154,-5.12077 3.08352,-1.6945 5.95121,-3.81254 9.21739,-5.12078 2.71258,-1.0865 5.66877,-1.60086 8.19324,-3.07246 2.54251,-1.48212 4.50946,-3.86084 7.16908,-5.12078 1.95344,-0.9254 4.16212,-1.18762 6.14493,-2.0483 1.40145,-0.60833 2.66813,-1.50652 4.09662,-2.04831 1.31729,-0.49962 2.7303,-0.68058 4.09662,-1.02416 2.09469,-0.52674 4.0741,-1.43442 6.14493,-2.04831 3.43074,-1.01702 7.1623,-1.24967 10.24154,-3.07246 1.46997,-0.87017 2.71755,-2.06441 4.09662,-3.07247 1.38043,-1.00906 2.90762,-1.84361 4.09662,-3.07246 1.18813,-1.22795 1.97584,-2.7863 3.07246,-4.09662 0.93003,-1.11126 2.06822,-2.02779 3.07247,-3.07246 3.30123,-3.43409 4.99478,-8.05152 7.16908,-12.28986 1.88913,-3.68245 4.21962,-7.22624 5.12077,-11.2657 0.45234,-2.02763 0.52933,-4.12725 1.02416,-6.14493 0.33564,-1.36857 0.86275,-2.69676 1.02415,-4.09662 0.15654,-1.35767 -0.0373,-2.73046 0,-4.09661 0.0468,-1.71752 0.43819,-3.40445 0.69212,-5.10374 0.25393,-1.69928 0.33204,-3.41965 0.33204,-5.13781 l 0,-11.2657 c 0,-0.6849 0.0291,-1.36938 0.0762,-2.05266 0.0471,-0.68327 0.0966,-1.3812 -0.0762,-2.04396 -0.21729,-0.8337 -0.77727,-1.53328 -1.37056,-2.158 -0.5933,-0.62471 -1.24088,-1.21081 -1.70191,-1.93862 -0.41057,-0.64815 -0.65707,-1.38362 -0.9329,-2.09957 -0.27584,-0.71595 -0.59394,-1.43425 -1.1154,-1.99705 -0.41974,-0.45301 -0.95238,-0.78443 -1.49059,-1.08731 -0.53821,-0.30288 -1.09204,-0.58489 -1.58188,-0.961 -0.68053,-0.52253 -1.21601,-1.21053 -1.68885,-1.92648 -0.47284,-0.71595 -0.89102,-1.46763 -1.38361,-2.17014 -1.7165,-2.44801 -4.31698,-4.22378 -7.16909,-5.12077 -1.34302,-0.42238 -2.73721,-0.6579 -4.09661,-1.02415 -1.36084,-0.36664 -2.69614,-0.86621 -4.09662,-1.02416 -1.6972,-0.19141 -3.41282,0 -5.12078,0 l -13.31401,0 -6.14492,0 c -2.0502,0 -4.11443,-0.28356 -6.14493,0 -1.39504,0.19482 -2.71704,0.73982 -4.09662,1.02416 -1.71052,0.35254 -3.52689,0.31022 -5.12077,1.02415 -1.33314,0.59714 -2.38957,1.67399 -3.31641,2.80305 -0.92684,1.12907 -1.76454,2.341 -2.82852,3.34188 -1.24425,1.17045 -2.75638,2.01328 -4.09662,3.07246 -1.89566,1.49814 -3.41939,3.40518 -5.12077,5.12078 -2.74608,2.76904 -5.95269,5.03596 -9.2174,7.16908 -1.0305,0.67332 -2.0691,1.33517 -3.07246,2.04831 -4.14159,2.94362 -7.67282,6.64865 -11.2657,10.24154 l -5.12077,5.12078 c -1.02462,1.02462 -2.15253,1.9529 -3.07247,3.07246 -1.08692,1.32277 -1.77224,2.98282 -3.07246,4.09662 -0.93601,0.8018 -2.12538,1.25963 -3.07247,2.04831 -0.84312,0.70209 -1.45709,1.6344 -2.05558,2.55396 -0.59849,0.91955 -1.20629,1.85479 -2.04104,2.56681 -0.93752,0.79969 -2.1127,1.27545 -3.07246,2.04831 -0.7526,0.60605 -1.35228,1.37805 -2.04831,2.04831 -0.69718,0.67137 -1.500107,1.25065 -2.048308,2.04831 -0.434541,0.63228 -0.685663,1.36884 -0.956396,2.08669 -0.270732,0.71785 -0.575699,1.44237 -1.091913,2.00993 -0.325151,0.3575 -0.726442,0.6435 -1.024155,1.02415 -0.152174,0.19457 -0.274922,0.41104 -0.430615,0.6028 -0.155692,0.19177 -0.353611,0.36265 -0.59354,0.42136 -0.166585,0.0408 -0.341217,0.0248 -0.511731,0.006 -0.170514,-0.0184 -0.344001,-0.0388 -0.512423,-0.006 -0.246041,0.0473 -0.459897,0.20467 -0.622146,0.39557 -0.162248,0.19091 -0.279347,0.4152 -0.395857,0.637 -0.116511,0.2218 -0.235336,0.44541 -0.400309,0.63397 -0.164974,0.18855 -0.382701,0.3416 -0.629998,0.38177 -0.169568,0.0275 -0.342575,0.001 -0.513189,-0.0189 -0.170614,-0.0201 -0.347292,-0.0333 -0.510965,0.0189 -0.116644,0.0372 -0.221286,0.10636 -0.311342,0.1893 -0.09006,0.0829 -0.166379,0.1796 -0.238319,0.27866 -0.143881,0.19813 -0.276336,0.41235 -0.474494,0.55619 -0.16444,0.11936 -0.363619,0.18176 -0.563179,0.22002 -0.199561,0.0383 -0.402838,0.0543 -0.602606,0.0914 -0.199768,0.0372 -0.399403,0.0973 -0.56579,0.2139 -0.08319,0.0583 -0.157221,0.13052 -0.213181,0.21531 -0.05596,0.0848 -0.09351,0.1824 -0.103553,0.2835 -0.01748,0.17596 0.04743,0.34809 0.08373,0.52116 0.01815,0.0865 0.02925,0.17555 0.01919,0.26339 -0.01006,0.0878 -0.04263,0.17493 -0.102921,0.2396 -0.06088,0.0653 -0.146667,0.104 -0.234707,0.11878 -0.08804,0.0148 -0.178549,0.007 -0.266181,-0.01 -0.175265,-0.0341 -0.344762,-0.10509 -0.523267,-0.10878 -0.12676,-0.003 -0.25315,0.0295 -0.366916,0.0855 -0.113766,0.056 -0.215203,0.13527 -0.302892,0.22684 -0.175378,0.18315 -0.294499,0.41193 -0.404316,0.64049 -0.109818,0.22856 -0.213985,0.46243 -0.366225,0.66522 -0.152239,0.20279 -0.360435,0.37519 -0.60796,0.43025 -0.167404,0.0372 -0.341554,0.0191 -0.512047,5.7e-4 -0.170493,-0.0185 -0.344541,-0.0371 -0.512108,-5.7e-4 -0.247257,0.0539 -0.456292,0.224 -0.610003,0.42502 -0.153711,0.20102 -0.259769,0.43347 -0.370527,0.661 -0.110758,0.22753 -0.229747,0.45548 -0.403524,0.63943 -0.08689,0.092 -0.18718,0.17214 -0.299817,0.22977 -0.112638,0.0576 -0.237914,0.0923 -0.364438,0.0931 -0.176952,0.001 -0.347041,-0.0629 -0.521112,-0.0947 -0.08704,-0.0159 -0.176434,-0.0238 -0.264031,-0.0113 -0.0876,0.0125 -0.173686,0.0463 -0.239012,0.10602 -0.06632,0.0606 -0.108128,0.14502 -0.126678,0.23291 -0.01855,0.0879 -0.01499,0.17928 -4.76e-4,0.26792 0.02903,0.17729 0.100982,0.3456 0.127154,0.52333 0.04316,0.29308 -0.04704,0.60318 -0.240649,0.82739 -0.193614,0.22422 -0.487265,0.35862 -0.783506,0.35862 -0.29624,0 -0.589891,-0.1344 -0.783505,-0.35862 -0.193614,-0.22421 -0.283807,-0.53431 -0.240649,-0.82739 l -3.072464,2.0483 z"
             style="fill:#d1438b;fill-opacity:1;fill-rule:evenodd;stroke:none;stroke-width:1px;stroke-linecap:butt;stroke-linejoin:miter;stroke-opacity:1" />
        </g>
      </g>
      <path
         inkscape:connector-curvature="0"
         id="path5980"
         d="m 1369.2948,946.87428 22.5314,25.60387 0,0"
         style="fill:none;fill-opacity:0.98823529;fill-rule:evenodd;stroke:#3280ec;stroke-width:10;stroke-linecap:round;stroke-linejoin:miter;stroke-miterlimit:4;stroke-dasharray:none;stroke-opacity:1" />
      <path
         inkscape:connector-curvature="0"
         id="path5982"
         d="m 1506.5315,1336.053 -15.3623,-30.7246"
         style="fill:none;fill-opacity:0.98823529;fill-rule:evenodd;stroke:#3280ec;stroke-width:10;stroke-linecap:round;stroke-linejoin:miter;stroke-miterlimit:4;stroke-dasharray:none;stroke-opacity:1" />
      <path
         inkscape:connector-curvature="0"
         id="path5984"
         d="m 1303.7488,1216.227 -3.0724,27.6522"
         style="fill:none;fill-opacity:0.98823529;fill-rule:evenodd;stroke:#3280ec;stroke-width:10;stroke-linecap:round;stroke-linejoin:miter;stroke-miterlimit:4;stroke-dasharray:none;stroke-opacity:1" />
      <path
         inkscape:connector-curvature="0"
         id="path5986"
         d="m 1355.9808,872.11099 14.3382,-24.57971 0,0"
         style="fill:none;fill-opacity:0.98823529;fill-rule:evenodd;stroke:#3280ec;stroke-width:11;stroke-linecap:round;stroke-linejoin:miter;stroke-miterlimit:4;stroke-dasharray:none;stroke-opacity:1" />
      <path
         inkscape:connector-curvature="0"
         id="path5988"
         d="m 1182.8986,1087.1835 26.6281,-34.8213"
         style="fill:none;fill-opacity:0.98823529;fill-rule:evenodd;stroke:#3280ec;stroke-width:10;stroke-linecap:round;stroke-linejoin:miter;stroke-miterlimit:4;stroke-dasharray:none;stroke-opacity:1" />
      <path
         inkscape:connector-curvature="0"
         id="path5990"
         d="m 1257.6619,942.77766 -11.2657,-20.48309"
         style="fill:none;fill-opacity:0.98823529;fill-rule:evenodd;stroke:#3280ec;stroke-width:11;stroke-linecap:round;stroke-linejoin:miter;stroke-miterlimit:4;stroke-dasharray:none;stroke-opacity:1" />
      <path
         inkscape:connector-curvature="0"
         id="path5992"
         d="m 1554.6668,1181.4057 14.3382,21.5072"
         style="fill:none;fill-opacity:0.98823529;fill-rule:evenodd;stroke:#3280ec;stroke-width:10;stroke-linecap:round;stroke-linejoin:miter;stroke-miterlimit:4;stroke-dasharray:none;stroke-opacity:1" />
      <path
         inkscape:connector-curvature="0"
         id="path5994"
         d="m 1557.7392,1064.6521 19.459,-28.6764"
         style="fill:none;fill-opacity:0.98823529;fill-rule:evenodd;stroke:#3280ec;stroke-width:10;stroke-linecap:round;stroke-linejoin:miter;stroke-miterlimit:4;stroke-dasharray:none;stroke-opacity:1" />
      <path
         inkscape:connector-curvature="0"
         id="path5996"
         d="m 1684.7344,1160.9226 -16.3865,-20.4831"
         style="fill:none;fill-opacity:0.98823529;fill-rule:evenodd;stroke:#3280ec;stroke-width:12;stroke-linecap:round;stroke-linejoin:miter;stroke-miterlimit:4;stroke-dasharray:none;stroke-opacity:1" />
      <path
         inkscape:connector-curvature="0"
         id="path5998"
         d="m 1494.2417,897.71485 29.7004,-15.36232"
         style="fill:none;fill-opacity:0.98823529;fill-rule:evenodd;stroke:#3280ec;stroke-width:11;stroke-linecap:round;stroke-linejoin:round;stroke-miterlimit:4;stroke-dasharray:none;stroke-opacity:1" />
      <path
         inkscape:connector-curvature="0"
         id="path6000"
         d="m 1344.7151,1368.826 14.3381,-29.7005"
         style="fill:none;fill-opacity:0.98823529;fill-rule:evenodd;stroke:#3280ec;stroke-width:11;stroke-linecap:round;stroke-linejoin:miter;stroke-miterlimit:4;stroke-dasharray:none;stroke-opacity:1" />
      <path
         inkscape:connector-curvature="0"
         id="path6068"
         d="m 1594.6088,918.19799 22.5314,25.6038 0,0"
         style="fill:none;fill-rule:evenodd;stroke:#1cdaf5;stroke-width:10;stroke-linecap:round;stroke-linejoin:miter;stroke-miterlimit:4;stroke-dasharray:none;stroke-opacity:1" />
      <path
         inkscape:connector-curvature="0"
         id="path6070"
         d="m 1670.3962,1069.7728 -15.3623,-30.7246"
         style="fill:none;fill-rule:evenodd;stroke:#1cdaf5;stroke-width:10;stroke-linecap:round;stroke-linejoin:miter;stroke-miterlimit:4;stroke-dasharray:none;stroke-opacity:1" />
      <path
         inkscape:connector-curvature="0"
         id="path6072"
         d="m 1520.8696,1224.4202 -3.0724,27.6521"
         style="fill:none;fill-rule:evenodd;stroke:#1cdaf5;stroke-width:10;stroke-linecap:round;stroke-linejoin:miter;stroke-miterlimit:4;stroke-dasharray:none;stroke-opacity:1" />
      <path
         inkscape:connector-curvature="0"
         id="path6074"
         d="m 1364.174,1269.483 14.3381,-24.5797 0,0"
         style="fill:none;fill-rule:evenodd;stroke:#1cdaf5;stroke-width:11;stroke-linecap:round;stroke-linejoin:miter;stroke-miterlimit:4;stroke-dasharray:none;stroke-opacity:1" />
      <path
         inkscape:connector-curvature="0"
         id="path6076"
         d="m 1445.0822,911.02882 26.628,-34.8212"
         style="fill:none;fill-rule:evenodd;stroke:#1cdaf5;stroke-width:10;stroke-linecap:round;stroke-linejoin:miter;stroke-miterlimit:4;stroke-dasharray:none;stroke-opacity:1" />
      <path
         inkscape:connector-curvature="0"
         id="path6078"
         d="m 1220.7923,1020.6134 -11.2657,-20.4831"
         style="fill:none;fill-rule:evenodd;stroke:#1cdaf5;stroke-width:11;stroke-linecap:round;stroke-linejoin:miter;stroke-miterlimit:4;stroke-dasharray:none;stroke-opacity:1" />
      <path
         inkscape:connector-curvature="0"
         id="path6080"
         d="m 1198.261,1173.2125 14.3382,21.5072"
         style="fill:none;fill-rule:evenodd;stroke:#1cdaf5;stroke-width:10;stroke-linecap:round;stroke-linejoin:miter;stroke-miterlimit:4;stroke-dasharray:none;stroke-opacity:1" />
      <path
         inkscape:connector-curvature="0"
         id="path6082"
         d="m 1246.3962,1101.5216 19.459,-28.6763"
         style="fill:none;fill-rule:evenodd;stroke:#1cdaf5;stroke-width:10;stroke-linecap:round;stroke-linejoin:miter;stroke-miterlimit:4;stroke-dasharray:none;stroke-opacity:1" />
      <path
         inkscape:connector-curvature="0"
         id="path6084"
         d="m 1426.6474,1365.7536 -16.3864,-20.4831"
         style="fill:none;fill-rule:evenodd;stroke:#1cdaf5;stroke-width:12;stroke-linecap:round;stroke-linejoin:miter;stroke-miterlimit:4;stroke-dasharray:none;stroke-opacity:1" />
      <path
         inkscape:connector-curvature="0"
         id="path6086"
         d="m 1309.8938,914.10128 29.7005,-15.3623"
         style="fill:none;fill-rule:evenodd;stroke:#1cdaf5;stroke-width:11;stroke-linecap:round;stroke-linejoin:round;stroke-miterlimit:4;stroke-dasharray:none;stroke-opacity:1" />
      <path
         inkscape:connector-curvature="0"
         id="path6088"
         d="m 1635.575,1196.768 14.3381,-29.7004"
         style="fill:none;fill-rule:evenodd;stroke:#1cdaf5;stroke-width:11;stroke-linecap:round;stroke-linejoin:miter;stroke-miterlimit:4;stroke-dasharray:none;stroke-opacity:1" />
      <path
         style="fill:none;fill-rule:evenodd;stroke:#f2f2f2;stroke-width:10;stroke-linecap:round;stroke-linejoin:miter;stroke-miterlimit:4;stroke-dasharray:none;stroke-opacity:1"
         d="m 1533.1595,877.23181 22.5314,25.6038 0,0"
         id="path6487"
         inkscape:connector-curvature="0" />
      <path
         style="fill:none;fill-rule:evenodd;stroke:#f2f2f2;stroke-width:10;stroke-linecap:round;stroke-linejoin:miter;stroke-miterlimit:4;stroke-dasharray:none;stroke-opacity:1"
         d="m 1445.0822,1286.8936 -15.3623,-30.7246"
         id="path6489"
         inkscape:connector-curvature="0" />
      <path
         style="fill:none;fill-rule:evenodd;stroke:#f2f2f2;stroke-width:10;stroke-linecap:round;stroke-linejoin:miter;stroke-miterlimit:4;stroke-dasharray:none;stroke-opacity:1"
         d="m 1275.0725,1154.7777 -3.0724,27.6521"
         id="path6491"
         inkscape:connector-curvature="0" />
      <path
         style="fill:none;fill-rule:evenodd;stroke:#f2f2f2;stroke-width:11;stroke-linecap:round;stroke-linejoin:miter;stroke-miterlimit:4;stroke-dasharray:none;stroke-opacity:1"
         d="m 1614.0678,1011.396 14.3381,-24.57967 0,0"
         id="path6493"
         inkscape:connector-curvature="0" />
      <path
         style="fill:none;fill-rule:evenodd;stroke:#f2f2f2;stroke-width:10;stroke-linecap:round;stroke-linejoin:miter;stroke-miterlimit:4;stroke-dasharray:none;stroke-opacity:1"
         d="m 1273.0242,980.67135 26.628,-34.8212"
         id="path6495"
         inkscape:connector-curvature="0" />
      <path
         style="fill:none;fill-rule:evenodd;stroke:#f2f2f2;stroke-width:11;stroke-linecap:round;stroke-linejoin:miter;stroke-miterlimit:4;stroke-dasharray:none;stroke-opacity:1"
         d="m 1183.9228,1114.8357 -11.2657,-20.4831"
         id="path6497"
         inkscape:connector-curvature="0" />
      <path
         style="fill:none;fill-rule:evenodd;stroke:#f2f2f2;stroke-width:10;stroke-linecap:round;stroke-linejoin:miter;stroke-miterlimit:4;stroke-dasharray:none;stroke-opacity:1"
         d="m 1308.8697,1287.9178 14.3382,21.5072"
         id="path6499"
         inkscape:connector-curvature="0" />
      <path
         style="fill:none;fill-rule:evenodd;stroke:#f2f2f2;stroke-width:10;stroke-linecap:round;stroke-linejoin:miter;stroke-miterlimit:4;stroke-dasharray:none;stroke-opacity:1"
         d="m 1578.2223,1285.8695 19.459,-28.6763"
         id="path6501"
         inkscape:connector-curvature="0" />
      <path
         style="fill:none;fill-rule:evenodd;stroke:#f2f2f2;stroke-width:12;stroke-linecap:round;stroke-linejoin:miter;stroke-miterlimit:4;stroke-dasharray:none;stroke-opacity:1"
         d="m 1520.8697,972.47815 -16.3865,-20.4831"
         id="path6503"
         inkscape:connector-curvature="0" />
      <path
         style="fill:none;fill-rule:evenodd;stroke:#f2f2f2;stroke-width:11;stroke-linecap:round;stroke-linejoin:round;stroke-miterlimit:4;stroke-dasharray:none;stroke-opacity:1"
         d="m 1592.5605,1139.4153 29.7005,-15.3623"
         id="path6505"
         inkscape:connector-curvature="0" />
      <path
         style="fill:none;fill-rule:evenodd;stroke:#f2f2f2;stroke-width:11;stroke-linecap:round;stroke-linejoin:miter;stroke-miterlimit:4;stroke-dasharray:none;stroke-opacity:1"
         d="m 1401.3649,903.71421 14.3381,-29.7004"
         id="path6507"
         inkscape:connector-curvature="0" />
    </g>
  </g>
</svg>
