<svg width="46" height="46" viewBox="0 0 46 46" fill="none" xmlns="http://www.w3.org/2000/svg">
<path d="M0 4C0 1.79086 1.79086 0 4 0H13.3769C15.2124 0 16.8123 1.24919 17.2575 3.02986L20.3203 15.2811C21.067 18.2679 18.301 20.9431 15.3408 20.0974L2.90111 16.5432C1.18391 16.0525 0 14.483 0 12.6971V4Z" fill="white"/>
<path d="M0 42C0 44.2091 1.79086 46 4 46H13.3769C15.2124 46 16.8123 44.7508 17.2575 42.9701L20.3203 30.7189C21.067 27.7321 18.301 25.0569 15.3408 25.9026L2.90111 29.4568C1.18391 29.9475 0 31.517 0 33.3029V42Z" fill="white"/>
<path d="M46 4C46 1.79086 44.2091 0 42 0H32.6231C30.7876 0 29.1877 1.24919 28.7425 3.02986L25.6797 15.2811C24.933 18.2679 27.699 20.9431 30.6592 20.0974L43.0989 16.5432C44.8161 16.0525 46 14.483 46 12.6971V4Z" fill="white"/>
<path d="M46 42C46 44.2091 44.2091 46 42 46H32.6231C30.7876 46 29.1877 44.7508 28.7425 42.9701L25.6797 30.7189C24.933 27.7321 27.699 25.0569 30.6592 25.9026L43.0989 29.4568C44.8161 29.9475 46 31.517 46 33.3029V42Z" fill="white"/>
</svg>
